<?xml version="1.0" standalone="no"?>
<!DOCTYPE svg PUBLIC "-//W3C//DTD SVG 1.1//EN" "http://www.w3.org/Graphics/SVG/1.1/DTD/svg11.dtd" >
<svg>
<metadata>
Created by FontForge 20090914 at Fri May 15 16:42:59 2020
 By www-data
Copyright 1993-1996 Brand Design Co., Inc./House Industries. Font by Ken Barber.
</metadata>
<defs>
<font id="FinkHeavy" horiz-adv-x="409" >
  <font-face 
    font-family="FinkHeavy"
    font-weight="400"
    font-stretch="normal"
    units-per-em="1000"
    panose-1="0 0 0 0 0 0 0 0 0 0"
    ascent="800"
    descent="-200"
    x-height="415"
    cap-height="691"
    bbox="-74.0942 -350.004 1447.05 882"
    underline-thickness="20"
    underline-position="-123"
    unicode-range="U+0020-U+F0BD"
  />
<missing-glyph horiz-adv-x="479" 
d="M40 0v531h399v-531h-399zM80 40h319v451h-319v-451z" />
    <glyph glyph-name=".notdef" horiz-adv-x="479" 
d="M40 0v531h399v-531h-399zM80 40h319v451h-319v-451z" />
    <glyph glyph-name="space" unicode=" " horiz-adv-x="250" 
 />
    <glyph glyph-name="exclam" unicode="!" horiz-adv-x="184" 
d="M152 734l-9 -595l-93 1l-15 590zM164 0l-108 2l2 92l104 1z" />
    <glyph glyph-name="quotedbl" unicode="&#x22;" horiz-adv-x="270" 
d="M250 661l-10 -192l-74 1l-13 186zM117 669l-8 -208l-74 2l-15 202z" />
    <glyph glyph-name="numbersign" unicode="#" horiz-adv-x="513" 
d="M493 431l-8 -94l-88 -1l-12 -81l77 -1l-10 -85l-81 -2l-13 -83l-100 2l11 80l-69 -1l-12 -72l-90 5l8 65l-86 -1l5 99l93 -2l9 74l-74 -1l2 101h84l11 90l109 5l-16 -96h63l16 117l109 5l-19 -123h81zM293 335l-66 -1l-12 -76l67 -1z" />
    <glyph glyph-name="dollar" unicode="$" horiz-adv-x="310" 
d="M290 411l-86.001 -9.99805c-0.666992 11.333 -4.33398 22.166 -11.001 32.499s-17 15.5 -31 15.5c-11.333 0 -21.833 -3.16699 -31.5 -9.5s-14.167 -16.833 -13.5 -31.5c0.666992 -14 10 -26.667 28 -38l58 -38c20.667 -14 39.667 -30.333 57 -49s26 -42.334 26 -71.001
c0 -24 -7.66699 -46.333 -23 -67s-38 -33.334 -68 -38.001l-2 -71l-77 3l-1 70c-16.667 3.33301 -32.167 9.66602 -46.5 18.999s-25.666 21 -33.999 35s-13 29.333 -14 46s3.16699 33.334 12.5 50.001l81 -27c-5.33301 -12.667 -4.33301 -23.167 3 -31.5
s16.333 -13.666 27 -15.999s21 -1.5 31 2.5s15 12.333 15 25c0 14 -8.33301 26.5 -25 37.5l-55.5 36c-20.333 13 -39.333 28.333 -57 46s-27.5 40.167 -29.5 67.5c-1.33301 23.333 3.83398 47.833 15.501 73.5s34.5 43.5 68.5 53.5l-1 94l98 -1l-2 -91
c16.667 -3.33301 30.667 -10.166 42 -20.499s20.5 -21.5 27.5 -33.5s11.833 -23.833 14.5 -35.5s4 -20.834 4 -27.501z" />
    <glyph glyph-name="percent" unicode="%" horiz-adv-x="768" 
d="M748 164c-1.33301 -49.333 -14.8301 -91.168 -40.4971 -125.501s-60.834 -52.5 -105.501 -54.5c-21.333 -1.33301 -41.5 1.5 -60.5 8.5s-35.833 17.167 -50.5 30.5s-26.667 29.833 -36 49.5s-15 41.834 -17 66.501c-2.66699 28 -0.333984 54 6.99902 78
s18.166 44.667 32.499 62s31.333 31.166 51 41.499s41.167 15.833 64.5 16.5c21.333 0.666992 41.5 -3.66602 60.5 -12.999s35.5 -22 49.5 -38s25 -34.667 33 -56s12 -43.333 12 -66zM591.003 656.998l-311 -709l-91 33l290 727zM335.003 482.998
c-0.666992 -48 -14.332 -88.5 -40.999 -121.5s-62.334 -50.833 -107.001 -53.5c-43.333 -2 -80.666 10.667 -111.999 38s-49.333 65 -54 113c-2.66699 27.333 -0.333984 52.5 6.99902 75.5s18.333 43 33 60s32 30.333 52 40s41.667 14.834 65 15.501
c22 1.33301 42.5 -2.5 61.5 -11.5s35.667 -21.333 50 -37s25.5 -33.834 33.5 -54.501s12 -42 12 -64zM668.005 157.998c0 11.333 -1.99707 22.665 -5.99707 33.998s-9.33301 21.333 -16 30s-14.334 15.5 -23.001 20.5s-17.667 7.5 -27 7.5
c-18.667 -0.666992 -35.334 -11.5 -50.001 -32.5s-21 -44.833 -19 -71.5c1.33301 -25.333 9.16602 -44.666 23.499 -57.999s30.833 -20 49.5 -20s34.667 9.33301 48 28s20 39.334 20 62.001zM249.008 476.997c0 20.667 -7.16797 39.832 -21.501 57.499
s-31.166 26.167 -50.499 25.5c-18.667 -0.666992 -35.167 -10.5 -49.5 -29.5s-20.833 -40.5 -19.5 -64.5c1.33301 -22.667 9 -40 23 -52s30.667 -18 50 -18s35.5 8.33301 48.5 25s19.5 35.334 19.5 56.001z" />
    <glyph glyph-name="ampersand" unicode="&#x26;" horiz-adv-x="513" 
d="M493 -16l-90.0049 1.00098l1 53c-12 -16 -33.333 -28.667 -64 -38s-64 -13 -100 -11s-71.167 11 -105.5 27s-61.5 41 -81.5 75c-21.333 36.667 -32.333 73 -33 109s6.16602 68.833 20.499 98.5s34.666 54.834 60.999 75.501s55.833 34 88.5 40
c-17.333 8.66699 -31.833 21 -43.5 37s-20 33.667 -25 53s-6.16699 39.166 -3.5 59.499s9.33398 38.5 20.001 54.5c16 23.333 36 40.666 60 51.999s49 18.166 75 20.499s51.5 0.833008 76.5 -4.5s46.167 -12.333 63.5 -21l-29 -95c-12 6 -25.667 10.833 -41 14.5
s-30 5.33398 -44 5.00098s-26.667 -2.83301 -38 -7.5s-19.666 -12 -24.999 -22c-6.66699 -13.333 -8.66699 -27 -6 -41s9.5 -26.667 20.5 -38s25.5 -21 43.5 -29s39 -12.333 63 -13l-11 -92c-26 0 -51.167 -2.5 -75.5 -7.5s-45.666 -13.333 -63.999 -25
s-32.666 -27 -42.999 -46s-14.833 -42.5 -13.5 -70.5s7.33301 -50 18 -66s22.834 -28 36.501 -36s27.834 -13 42.501 -15s26.667 -2.66699 36 -2c12 0.666992 24.833 3.16699 38.5 7.5s26.334 11.833 38.001 22.5s21.5 24.667 29.5 42s12 39 12 65l-63 2l-6 -78l-73 -2
l-5 154l233 7z" />
    <glyph glyph-name="quotesingle" unicode="'" horiz-adv-x="137" 
d="M117 677l-8 -208l-74 1l-15 202z" />
    <glyph glyph-name="parenleft" unicode="(" horiz-adv-x="281" 
d="M261 -66l-37.001 -87c-37.333 14.667 -69 38.667 -95 72s-47 72.166 -63 116.499s-27.667 92.5 -35 144.5s-11 104 -11 156s3.66699 104 11 156s19 100.167 35 144.5s37 83.166 63 116.499s57.667 57.333 95 72l37 -87c-16.667 -8.66699 -33 -24 -49 -46
s-30 -50.167 -42 -84.5s-21.667 -74.166 -29 -119.499s-10.666 -96 -9.99902 -152c0.666992 -112 13.5 -202.667 38.5 -272s55.5 -112.666 91.5 -129.999z" />
    <glyph glyph-name="parenright" unicode=")" horiz-adv-x="281" 
d="M261 336c0 -52 -3.66797 -104 -11.001 -156s-19 -100.167 -35 -144.5s-37 -83.166 -63 -116.499s-57.667 -57.333 -95 -72l-37 87c36 17.333 66.333 60.666 91 129.999s37.667 160 39 272c0.666992 56 -2.66602 106.667 -9.99902 152s-17 85.166 -29 119.499
s-25.833 62.5 -41.5 84.5s-32.167 37.333 -49.5 46l37 87c37.333 -14.667 69 -38.667 95 -72s47 -72.166 63 -116.499s27.667 -92.5 35 -144.5s11 -104 11 -156z" />
    <glyph glyph-name="asterisk" unicode="*" horiz-adv-x="339" 
d="M319 589l-73 -55l55 -49l-43 -56l-79 43l-53 -67l-64 34l31 74l-73 37l31 67l68 -19l-1 88l74 5l18 -82l74 34z" />
    <glyph glyph-name="plus" unicode="+" horiz-adv-x="380" 
d="M360 346l-5 -102l-116 -3l-3 -105l-105 3v109h-107l-4 99l105 1l4 142l113 -3v-140z" />
    <glyph glyph-name="comma" unicode="," horiz-adv-x="166" 
d="M145 82c3.33301 -34 1.99902 -61.998 -4.00098 -83.998s-14.667 -39.667 -26 -53s-24.333 -22.833 -39 -28.5s-29 -8.83398 -43 -9.50098l-13 48c6.66699 2 15.334 5.66699 26.001 11s17.667 14.666 21 27.999h-38l-5 85z" />
    <glyph glyph-name="hyphen" unicode="-" horiz-adv-x="291" 
d="M271 210l-249 5l-2 89l247 4z" />
    <glyph glyph-name="period" unicode="." horiz-adv-x="142" 
d="M122 -20l-102 2l2 96l98 1z" />
    <glyph glyph-name="slash" unicode="/" horiz-adv-x="526" 
d="M506 790l-394 -959l-92 33l374 977z" />
    <glyph glyph-name="zero" unicode="0" horiz-adv-x="628" 
d="M607 313c-4 -50 -14.5 -95.166 -31.5 -135.499s-39.333 -74.5 -67 -102.5s-60 -48.833 -97 -62.5s-77.5 -18.834 -121.5 -15.501c-41.333 3.33301 -79.333 14.166 -114 32.499s-64 43.166 -88 74.499s-42.167 68.666 -54.5 111.999s-16.5 91.333 -12.5 144
c3.33301 46.667 13.5 89.667 30.5 129s39.333 73 67 101s60 49.667 97 65s77.167 22.333 120.5 21c45.333 -1.33301 85.5 -12.166 120.5 -32.499s64.333 -47.166 88 -80.499s41 -71.666 52 -114.999s14.5 -88.333 10.5 -135zM492 328.001c2 30 -0.166992 59.167 -6.5 87.5
s-16.5 53.5 -30.5 75.5s-31 40 -51 54s-42.667 21.667 -68 23c-26.667 2 -51.167 -2.83301 -73.5 -14.5s-41.833 -27.667 -58.5 -48s-30.167 -44 -40.5 -71s-16.5 -55.5 -18.5 -85.5c-2.66699 -33.333 -0.166992 -64.5 7.5 -93.5s19 -54.5 34 -76.5s33 -39.333 54 -52
s43.5 -19.667 67.5 -21c50 -2.66699 91.833 15.5 125.5 54.5s53.167 94.833 58.5 167.5z" />
    <glyph glyph-name="one" unicode="1" horiz-adv-x="281" 
d="M261 -14l-228 -3v105l54 -2l4 475l-59 -11l-12 93l180 55l4 -615l56 -1z" />
    <glyph glyph-name="two" unicode="2" horiz-adv-x="539" 
d="M506 164l-1 -188.001l-432 2c-8 66.667 2.5 125 31.5 175s74.833 92.333 137.5 127c56 30.667 97.5 63.667 124.5 99s31.5 73.333 13.5 114c-10.667 24 -26.834 41.667 -48.501 53s-45.667 17 -72 17s-53.5 -5.16699 -81.5 -15.5s-54 -25.166 -78 -44.499l-80 147l108 47
l24 -44c17.333 8 41.5 14.333 72.5 19s63.333 4.66699 97 0s66.167 -15.334 97.5 -32.001s55.333 -42.667 72 -78c34.667 -71.333 38 -136.166 10 -194.499s-81.333 -112.833 -160 -163.5l-38 -25.5c-13.333 -9 -25.666 -18.833 -36.999 -29.5s-21 -21.5 -29 -32.5
s-12.667 -22.5 -14 -34.5l184 4l7 76z" />
    <glyph glyph-name="three" unicode="3" horiz-adv-x="548" 
d="M528 183c-1.33301 -28.667 -7.83008 -55.5 -19.4971 -80.5s-28.5 -46.833 -50.5 -65.5s-48.667 -33.5 -80 -44.5s-67 -16.5 -107 -16.5s-78.833 7.16699 -116.5 21.5s-72.834 37.166 -105.501 68.499l73 95c21.333 -19.333 46.166 -36.166 74.499 -50.499
s55.5 -21.166 81.5 -20.499c37.333 1.33301 68.166 10.666 92.499 27.999s36.166 43.333 35.499 78c0 20.667 -5.66699 37.667 -17 51s-25.5 23.833 -42.5 31.5s-35.833 12.834 -56.5 15.501s-40.667 3 -60 1l-3 94c38 0.666992 70.833 10 98.5 28s41.167 42.667 40.5 74
c-1.33301 26.667 -9.83301 49.167 -25.5 67.5s-42.5 28.166 -80.5 29.499c-13.333 0.666992 -27.333 -0.833008 -42 -4.5s-29 -8.5 -43 -14.5s-27.167 -13.167 -39.5 -21.5s-23.5 -16.833 -33.5 -25.5l-82 128l96 55l23 -37c18.667 9.33301 39.667 16 63 20s45.333 6 66 6
c30.667 0 59 -4.5 85 -13.5s48.5 -21.667 67.5 -38s34 -36.166 45 -59.499s17.5 -49.333 19.5 -78c0.666992 -12.667 -0.5 -26.334 -3.5 -41.001s-7.33301 -28.667 -13 -42s-12.334 -25.5 -20.001 -36.5s-15.5 -19.5 -23.5 -25.5c32.667 -14.667 58.334 -38 77.001 -70
s27.334 -67.667 26.001 -107z" />
    <glyph glyph-name="four" unicode="4" horiz-adv-x="517" 
d="M497 -20l-266 -3l-1 105l89 -1l2 125l-301 -2l27 480l117 -2l-14 -367h173l4 314l107 5l2 -319h58l2 -107l-59 -1l1 -129l58 -2z" />
    <glyph glyph-name="five" unicode="5" horiz-adv-x="492" 
d="M472 208c0 -29.333 -6.66406 -57.834 -19.9971 -85.501s-31 -52 -53 -73s-47.667 -37.667 -77 -50s-60.333 -18.5 -93 -18.5c-36.667 0.666992 -73.334 8.66699 -110.001 24s-69.667 40 -99 74l69 80c15.333 -20.667 36.666 -38.334 63.999 -53.001
s53.333 -21.667 78 -21c31.333 0.666992 59.333 12.334 84 35.001s37.334 54 38.001 94c0 19.333 -3.66699 36.833 -11 52.5s-17.166 29 -29.499 40s-26.5 19.667 -42.5 26s-32.667 9.83301 -50 10.5c-32.667 0.666992 -64.5 -4.66602 -95.5 -15.999
s-58.167 -27.666 -81.5 -48.999l-8 398l424 2l-4 -173l-95 -5l-4 74l-196 1l-4 -134c14.667 4 29.667 6.16699 45 6.5s30 0.166016 44 -0.500977c36 0 68.167 -6.33301 96.5 -19s52.166 -29.667 71.499 -51s34.166 -46.5 44.499 -75.5s15.166 -60.167 14.499 -93.5z" />
    <glyph glyph-name="six" unicode="6" horiz-adv-x="552" 
d="M532 649l-90 -114c-25.333 24.667 -50.5 41.167 -75.5 49.5s-51.5 11.833 -79.5 10.5c-11.333 -0.666992 -24 -4.16699 -38 -10.5s-27.5 -16 -40.5 -29s-24.833 -29.5 -35.5 -49.5s-18.334 -43.667 -23.001 -71c18.667 16 39.667 27.333 63 34s45.333 10.334 66 11.001
c34 1.33301 66 -4.33398 96 -17.001s56 -30.167 78 -52.5s39.333 -48.333 52 -78s18.667 -60.834 18 -93.501c-0.666992 -35.333 -6.33398 -68.333 -17.001 -99s-26 -57.667 -46 -81s-44 -42 -72 -56s-59.667 -21.667 -95 -23c-36 -2 -68.833 2.5 -98.5 13.5
s-55.667 26.667 -78 47s-41 45 -56 74s-25.5 60.833 -31.5 95.5c-8 49.333 -10.5 101.5 -7.5 156.5s13.833 106.333 32.5 154s46 87.834 82 120.501s82.667 51 140 55c38.667 2.66699 68.334 0 89.001 -8s38.334 -16.333 53.001 -25l35 38zM414 230
c-0.666992 21.333 -4.83691 40.998 -12.5039 58.998s-17.667 33.667 -30 47s-26.666 23.5 -42.999 30.5s-33.5 10.167 -51.5 9.5c-17.333 -0.666992 -34.166 -4.16699 -50.499 -10.5s-30.666 -16.166 -42.999 -29.499s-21.666 -30 -27.999 -50s-8.5 -43.667 -6.5 -71
c3.33301 -41.333 18 -74.166 44 -98.499s56.667 -36.5 92 -36.5c17.333 0 34 4.16699 50 12.5s29.833 19.333 41.5 33s21 29.5 28 47.5s10.167 37 9.5 57z" />
    <glyph glyph-name="seven" unicode="7" horiz-adv-x="564" 
d="M544 666l-236 -584l87 -1l-3 -90l-278 -4l-2 102l81 -2l181 475l-254 -2l-1 -74l-94 3l-5 184z" />
    <glyph glyph-name="eight" unicode="8" horiz-adv-x="565" 
d="M545 201c0 -32 -6.16504 -61.8291 -18.498 -89.4961s-30 -51.834 -53 -72.501s-50.5 -37.334 -82.5 -50.001s-67.333 -19.334 -106 -20.001c-35.333 -0.666992 -68.833 4.83301 -100.5 16.5s-59.667 28.167 -84 49.5s-43.666 46.166 -57.999 74.499
s-21.833 58.5 -22.5 90.5c-0.666992 42.667 7.66602 81 24.999 115s42.333 61.333 75 82c-36 32.667 -55 73 -57 121c-0.666992 25.333 4.5 49 15.5 71s26 41.333 45 58s41 29.667 66 39s51.167 13.666 78.5 12.999c29.333 -0.666992 56.666 -5 81.999 -13
s47.5 -19.333 66.5 -34s34.167 -32.334 45.5 -53.001s17.666 -44 18.999 -70c1.33301 -24.667 -2 -47.667 -10 -69s-19.667 -40 -35 -56c35.333 -19.333 62.333 -46.666 81 -81.999s28 -75.666 28 -120.999zM372.002 526.004c0 22.667 -9.83301 41.667 -29.5 57
s-43.167 22.333 -70.5 21c-25.333 -1.33301 -47.333 -9.83301 -66 -25.5s-27.667 -34.5 -27 -56.5c0.666992 -25.333 11 -46.333 31 -63s44.667 -24 74 -22c26.667 2 48 11 64 27s24 36.667 24 62zM429.002 203.004c-0.666992 40.667 -15.332 73.832 -43.999 99.499
s-62 39.5 -100 41.5c-19.333 0.666992 -37.5 -2.33301 -54.5 -9s-32 -16.167 -45 -28.5s-23.167 -27.166 -30.5 -44.499s-11 -36.333 -11 -57s4.16699 -39.334 12.5 -56.001s19.166 -30.667 32.499 -42s28.333 -20.166 45 -26.499s33.667 -9.83301 51 -10.5
c16.667 -0.666992 33.667 1.83301 51 7.5s33 14.167 47 25.5s25.167 25.333 33.5 42s12.5 36 12.5 58z" />
    <glyph glyph-name="nine" unicode="9" horiz-adv-x="538" 
d="M511 463c6.66699 -46 8.50391 -95.667 5.50391 -149s-12.5 -103.5 -28.5 -150.5s-39.667 -87.167 -71 -120.5s-72.666 -52.666 -123.999 -57.999c-33.333 -3.33301 -63.833 -1.5 -91.5 5.5s-48.834 14.833 -63.501 23.5l-34 -39l-80 49l82 127
c25.333 -24 52.166 -41.333 80.499 -52s56.166 -15 83.499 -13c12.667 1.33301 26.167 5.83301 40.5 13.5s27.666 18.167 39.999 31.5s22.833 29.5 31.5 48.5s14 40.167 16 63.5c-18 -16.667 -38.333 -29 -61 -37s-44 -12.667 -64 -14
c-34 -2.66699 -66.167 1.83301 -96.5 13.5s-57 28.167 -80 49.5s-41.333 47 -55 77s-20.834 62.333 -21.501 97c-0.666992 35.333 3.83301 67.833 13.5 97.5s24 55.667 43 78s42.333 40.5 70 54.5s59.167 22.333 94.5 25c34 2.66699 66.167 -0.5 96.5 -9.5
s57.5 -23 81.5 -42s44 -42.833 60 -71.5s26.667 -61.334 32 -98.001zM397.004 463c-6.66699 39.333 -23.5 69.1709 -50.5 89.5039s-58.167 29.5 -93.5 27.5c-38 -2.66699 -68 -17.834 -90 -45.501s-32.333 -59.834 -31 -96.501c0.666992 -20 4.83398 -38.833 12.501 -56.5
s17.834 -33.167 30.501 -46.5s27 -23.833 43 -31.5s32.667 -10.834 50 -9.50098c20 1.33301 38.833 5.66602 56.5 12.999s32.667 18 45 32s21.166 31.333 26.499 52s5.66602 44.667 0.999023 72z" />
    <glyph glyph-name="colon" unicode=":" horiz-adv-x="145" 
d="M123 287l-2 -93l-98 -1l-2 96zM125 87l-2 -85l-101 -1l-2 88z" />
    <glyph glyph-name="semicolon" unicode=";" horiz-adv-x="168" 
d="M130 292l-2 -96l-107 8l-1 91zM147 82c2.66699 -34 0.998047 -61.998 -5.00195 -83.998s-14.667 -39.667 -26 -53s-24.166 -22.833 -38.499 -28.5s-28.5 -8.83398 -42.5 -9.50098l-13 48c6.66699 2 15.334 5.66699 26.001 11s17.667 14.666 21 27.999h-39l-4 85z" />
    <glyph glyph-name="less" unicode="&#x3c;" horiz-adv-x="425" 
d="M405 434l-212 -107l192 -92l-40 -94l-316 122l-9 99l356 154z" />
    <glyph glyph-name="equal" unicode="=" horiz-adv-x="380" 
d="M341 348l-307 4l-2 89l305 4zM360 194l-340 4v93l338 6z" />
    <glyph glyph-name="greater" unicode="&#x3e;" horiz-adv-x="425" 
d="M405 362l-10 -99l-316 -122l-40 94l192 92l-211 107l29 82z" />
    <glyph glyph-name="question" unicode="?" horiz-adv-x="527" 
d="M507 454c-0.666992 -28 -6.16699 -54.668 -16.5 -80.001s-25 -48.333 -44 -69s-41.833 -38 -68.5 -52s-56.334 -23.333 -89.001 -28l-2 -75l-113 3l-3 162c74.667 3.33301 128.167 18.5 160.5 45.5s47.833 59.167 46.5 96.5c-1.33301 32 -12.333 58 -33 78
s-47.667 30.667 -81 32c-12.667 0.666992 -26.334 -0.333008 -41.001 -3s-29 -6.5 -43 -11.5s-27 -11.167 -39 -18.5s-22 -15.333 -30 -24l-76 164l100 41l26 -52c20.667 8.66699 40.5 14.167 59.5 16.5s38.167 3.83301 57.5 4.5
c36.667 0.666992 69.334 -5.16602 98.001 -17.499s52.834 -29.333 72.501 -51s34.5 -46.5 44.5 -74.5s14.667 -57 14 -87zM282 -2.00098l-123 2l2 94l119 1z" />
    <glyph glyph-name="at" unicode="@" horiz-adv-x="496" 
d="M476 372c-0.666992 -53.333 -12.1641 -92.502 -34.4971 -117.502s-47.166 -37.5 -74.499 -37.5c-16 0 -28.667 2 -38 6s-18.666 10.333 -27.999 19c-16.667 -6.66699 -33.834 -10.167 -51.501 -10.5s-33.834 2.33398 -48.501 8.00098s-26.834 14.334 -36.501 26.001
s-14.5 26.167 -14.5 43.5c-0.666992 24.667 7.16602 44.667 23.499 60s37.166 23.666 62.499 24.999c11.333 0.666992 20.833 0.166992 28.5 -1.5s13.834 -4.16699 18.501 -7.5c0 10 -2.83301 18.833 -8.5 26.5s-13.334 12.667 -23.001 15s-20.334 1.83301 -32.001 -1.5
s-23.5 -10.666 -35.5 -21.999l-31 45c7.33301 7.33301 16.333 14 27 20s22.5 10.5 35.5 13.5s26.667 4.16699 41 3.5s28.166 -4.66699 41.499 -12c14.667 -8 25.667 -17 33 -27s12.333 -21.167 15 -33.5s4 -26 4 -41v-48.5c0 -18 1.66699 -29.833 5 -35.5
s8.33301 -8.5 15 -8.5s15 7.16699 25 21.5s14.333 39.833 13 76.5c-0.666992 36.667 -14.167 69.334 -40.5 98.001s-65.166 42.334 -116.499 41.001c-25.333 -0.666992 -47.666 -5.5 -66.999 -14.5s-35.666 -20.5 -48.999 -34.5s-23.333 -30 -30 -48s-10 -36.667 -10 -56
c0 -38 7 -66.667 21 -86s34 -36 60 -50l-37 -52c-32.667 14.667 -60.667 36.667 -84 66s-35 71 -35 125c0 26.667 5 53.167 15 79.5s24.833 49.666 44.5 69.999s44 36.666 73 48.999s62.167 18.5 99.5 18.5c41.333 0 76.166 -6.33301 104.499 -19s51.5 -29 69.5 -49
s30.833 -42.5 38.5 -67.5s11.5 -50.167 11.5 -75.5zM287.003 296.998l-1.00098 37c-2.66699 2.66699 -7 5.33398 -13 8.00098s-12.667 4 -20 4c-28.667 0 -42.334 -11.667 -41.001 -35c0 -7.33301 2.66699 -13.666 8 -18.999s11.833 -8.83301 19.5 -10.5
s15.834 -1.33398 24.501 0.999023s16.334 7.16602 23.001 14.499z" />
    <glyph glyph-name="A" unicode="A" horiz-adv-x="612" 
d="M592 5l-288 -8l-4 102l106 -1l-32 115h-153l-58 -228l-139 -2l-4 101l58 2l129 498l-93 2l1 94l247 1l168 -581l59 -2zM352 306l-57 190l-47 -191z" />
    <glyph glyph-name="B" unicode="B" horiz-adv-x="539" 
d="M519 172c-0.666992 -52.667 -18.335 -95.167 -53.002 -127.5s-86.667 -48.833 -156 -49.5l-77 -2.5c-51.333 -1.66699 -120 -1.5 -206 0.5l-7 100l66 1l-11 483l-46 -3l-5 93c110 12 198.667 13.333 266 4c69.333 -8.66699 118 -26.667 146 -54s44 -62.333 48 -105
c2.66699 -40 -4.16602 -75 -20.499 -105s-39.166 -50.667 -68.499 -62c18 -3.33301 34.667 -10.5 50 -21.5s28.5 -24.5 39.5 -40.5s19.5 -33.5 25.5 -52.5s9 -38.5 9 -58.5zM363.999 480c0.666992 22.667 -4.66992 40.668 -16.0029 54.001s-25.666 23.166 -42.999 29.499
s-36.166 10.166 -56.499 11.499s-39.166 1.33301 -56.499 0l2 -200c20.667 0 41 1.33301 61 4s38 7.66699 54 15s29.167 17.833 39.5 31.5s15.5 31.834 15.5 54.501zM392.995 193.001c0.666992 24.667 -5.5 44.0029 -18.5 58.0029s-29.5 24.333 -49.5 31
s-41.667 10.167 -65 10.5s-45 -0.833984 -65 -3.50098l1 -193h74.5c23.667 0 44.5 2.66699 62.5 8s32.5 14.666 43.5 27.999s16.5 33.666 16.5 60.999z" />
    <glyph glyph-name="C" unicode="C" horiz-adv-x="562" 
d="M542 674l-66.9961 -169.003c-19.333 16 -41.833 29.333 -67.5 40s-55.5 14.334 -89.5 11.001c-26 -2.66699 -50.333 -11 -73 -25s-42.167 -32.5 -58.5 -55.5s-28.666 -50 -36.999 -81s-11.166 -64.833 -8.49902 -101.5c3.33301 -36.667 11.666 -66.834 24.999 -90.501
s29 -42.167 47 -55.5s36.833 -22.666 56.5 -27.999s37.167 -8 52.5 -8c29.333 -0.666992 58.666 4 87.999 14s55.666 26.333 78.999 49l51 -90c-24 -27.333 -53.667 -47.5 -89 -60.5s-80 -20.833 -134 -23.5c-28.667 -1.33301 -59.334 2.66699 -92.001 12
s-63.334 25.333 -92.001 48s-53.334 52.334 -74.001 89.001s-33 81.667 -37 135c-5.33301 64.667 0.5 120.834 17.5 168.501s39.833 87.5 68.5 119.5s60.667 56.167 96 72.5s69 25.166 101 26.499c24 0.666992 46.5 -0.166016 67.5 -2.49902s37.833 -4.83301 50.5 -7.5
l16 46z" />
    <glyph glyph-name="D" unicode="D" horiz-adv-x="582" 
d="M561 319c-2 -54 -11.833 -100.834 -29.5 -140.501s-40.667 -72.667 -69 -99s-60.5 -46.5 -96.5 -60.5s-73.667 -22.667 -113 -26c-34.667 -3.33301 -71.834 -5 -111.501 -5s-75.834 1 -108.501 3l-7 97l70 2l-7 481l-63 -2l-6 107c16.667 2 35.834 3.33301 57.501 4
s44 0.833984 67 0.500977s45.5 -1 67.5 -2s42 -2.5 60 -4.5c48 -4 90.333 -15.5 127 -34.5s67.334 -44 92.001 -75s43 -67.167 55 -108.5s17 -87 15 -137zM440 359.999c-1.33301 28 -7.16895 54.835 -17.502 80.502s-24.666 48.167 -42.999 67.5
s-40.666 34.666 -66.999 45.999s-56.166 16.666 -89.499 15.999l4 -472c34.667 0.666992 65.667 8.16699 93 22.5s50.166 33.5 68.499 57.5s32 51.833 41 83.5s12.5 64.5 10.5 98.5z" />
    <glyph glyph-name="E" unicode="E" horiz-adv-x="539" 
d="M519 -9l-497 -5l-2 94l62 -5l-1 497l-58 5v101l492 5l-1 -172l-83 -1l-3 70l-227 3l-3 -217l101 -1v125l93 2l-4 -277l-89 -1l-1 64l-102 -2v-185l228 1l1 91l91 4z" />
    <glyph glyph-name="F" unicode="F" horiz-adv-x="531" 
d="M511 505l-76 -4l-6 79l-238 -4l5 -214l113 4l-1 117h89l8 -259l-97 -4l-4 58l-107 -4l-1 -190l128 2l-1 -104l-300 4l-3 88l63 4l-8 495l-49 2l-3 97l486 5z" />
    <glyph glyph-name="G" unicode="G" horiz-adv-x="658" 
d="M638 79l-4.00293 -95.9941l-154 -4l5 73c-7.33301 -10.667 -17 -19.667 -29 -27s-25.5 -13.5 -40.5 -18.5s-30.667 -8.66699 -47 -11s-31.833 -3.5 -46.5 -3.5c-32 -1.33301 -65 3.66699 -99 15s-65.333 29 -94 53s-53 55 -73 93s-31.667 83.667 -35 137
c-4.66699 68 3 126.167 23 174.5s46.333 88.166 79 119.499s68.667 54.666 108 69.999s76 23.666 110 24.999c24.667 0.666992 47.334 -0.333008 68.001 -3s38.334 -6.33398 53.001 -11.001l18 50l106 -34l-66 -168c-19.333 17.333 -43.833 31.5 -73.5 42.5
s-61.834 14.833 -96.501 11.5c-29.333 -2.66699 -57.166 -10.834 -83.499 -24.501s-49 -32 -68 -55s-33.5 -50.333 -43.5 -82s-13.667 -66.834 -11 -105.501c2.66699 -40 11.334 -73 26.001 -99s31.5 -46.5 50.5 -61.5s38.167 -25.333 57.5 -31s35.333 -8.5 48 -8.5
c21.333 0.666992 42 4.66699 62 12s37.667 18.5 53 33.5s27.5 34.5 36.5 58.5s13.5 53.333 13.5 88h-90l-2 -72l-92 -4l-3 171l285 8l-3 -315z" />
    <glyph glyph-name="H" unicode="H" horiz-adv-x="607" 
d="M587 76l-1 -90l-181 -2l3 273l-204 1l1 -153l71 -1l2 -102l-258 -2v101l58 1l4 481h-51l-1 96l239 2v-87l-70 -2l-1 -230l211 3l2 248h-67l-2 89l233 -1l2 -98h-43l-2 -528z" />
    <glyph glyph-name="I" unicode="I" horiz-adv-x="297" 
d="M277 87l-1 -100l-255 2v91h72l-7 518l-64 -3l-2 96h255l-2 -96l-72 -2l-1 -504z" />
    <glyph glyph-name="J" unicode="J" horiz-adv-x="469" 
d="M441 161c-6.66699 -63.333 -29.6641 -109.665 -68.9971 -138.998s-87 -42.666 -143 -39.999c-29.333 1.33301 -54.666 7.66602 -75.999 18.999s-38.833 25.666 -52.5 42.999s-23.667 37 -30 59s-9.5 44.333 -9.5 67l-41 11l22 104l141 -29
c-16 -44.667 -18.5 -82.334 -7.5 -113.001s32.167 -47.334 63.5 -50.001c27.333 -2 48.166 7.16699 62.499 27.5s22.5 49.5 24.5 87.5c1.33301 24 2.16602 52 2.49902 84s0.166016 65 -0.500977 99s-1.83398 67.5 -3.50098 100.5s-3.83398 62.167 -6.50098 87.5l-85 -4
l-4 99l208 4c4.66699 -82.667 7.83398 -152.5 9.50098 -209.5s2.5 -105 2.5 -144s-0.833008 -71.167 -2.5 -96.5s-3.5 -47.666 -5.5 -66.999z" />
    <glyph glyph-name="K" unicode="K" horiz-adv-x="600" 
d="M580 -42l-143 -6l-164 326l-65 -78v-112l92 -1l3 -95l-273 -2l-2 100l67 -1l-3 538h-72v93l188 1l2 -363l190 233h-47v85h224l-2 -100l-54 -1l-164 -196l169 -328l54 -1v-92z" />
    <glyph glyph-name="L" unicode="L" horiz-adv-x="535" 
d="M515 8l-494 -1l2 100l66 1l-2 510l-67 -1l3 93l287 2l2 -89l-105 -2l-7 -511l218 3l7 102l87 1z" />
    <glyph glyph-name="M" unicode="M" horiz-adv-x="751" 
d="M731 -4l-274 -5l-1 96l93 3l-9 416l-112 -385l-91 -6l-132 322v-342l93 -2l-1 -84l-276 2l-1 92h75l5 488l-72 -1l-1 93h187l163 -392l119 406l210 -2l3 -76l-59 -2l7 -528h71z" />
    <glyph glyph-name="N" unicode="N" horiz-adv-x="640" 
d="M620 619l-46 -2l-7 -589l-128 -3l-249 446l2 -385l104 -2l-1 -83l-271 -1l-1 99l61 -1l-9 506l-54 2l-1 78h165l275 -467l2 398l-87 -2l-3 82l248 -3v-73z" />
    <glyph glyph-name="O" unicode="O" horiz-adv-x="679" 
d="M658 366c4 -52 -0.832031 -99.498 -14.499 -142.498s-34 -80.333 -61 -112s-59.333 -57 -97 -76s-78.5 -30.167 -122.5 -33.5c-46.667 -3.33301 -89.834 2.16699 -129.501 16.5s-74.5 35.666 -104.5 63.999s-54.5 62.666 -73.5 102.999s-30.5 84.5 -34.5 132.5
s0.666992 93.5 14 136.5s33.333 81.167 60 114.5s58.5 60.5 95.5 81.5s77.5 32.833 121.5 35.5s86 -3.33301 126 -18s75.667 -36.5 107 -65.5s57 -63.667 77 -104s32 -84.5 36 -132.5zM528.001 355.002c-2.66699 30.667 -9.83398 59.333 -21.501 86s-26.667 49.667 -45 69
s-40 34.333 -65 45s-52.5 15 -82.5 13c-25.333 -1.33301 -49 -8.66602 -71 -21.999s-40.833 -30.5 -56.5 -51.5s-27.334 -45.333 -35.001 -73s-10.167 -56.834 -7.5 -87.501c3.33301 -34 10.833 -64.667 22.5 -92s26.334 -50.5 44.001 -69.5s37.834 -33.5 60.501 -43.5
s46.667 -14 72 -12c26 2 50.667 9 74 21s43.833 28.5 61.5 49.5s31 45.667 40 74s12.167 59.5 9.5 93.5z" />
    <glyph glyph-name="P" unicode="P" horiz-adv-x="522" 
d="M502 465c0 -31.333 -5.49902 -60.6689 -16.499 -88.002s-28.5 -51.333 -52.5 -72s-55.333 -37.167 -94 -49.5s-86.334 -19.5 -143.001 -21.5l2 -143l110 -3l-1 -99l-286 2l-1 80h58l-3 514l-53 -1v95c56 6 104.333 8.66699 145 8s78 -2 112 -4
c40 -2.66699 74.167 -11.167 102.5 -25.5s51.5 -32.166 69.5 -53.499s31 -44.166 39 -68.499s12 -47.833 12 -70.5zM378.001 471.997c-0.666992 12 -2.66699 24.8311 -6 38.498s-11.333 26.334 -24 38.001s-31.167 21 -55.5 28s-57.5 9.5 -99.5 7.5l7 -244
c41.333 0 73.833 4 97.5 12s41.667 18.5 54 31.5s20 27.333 23 43s4.16699 30.834 3.5 45.501z" />
    <glyph glyph-name="Q" unicode="Q" horiz-adv-x="686" 
d="M702 -87c0 -27.333 -5.50293 -49.332 -16.5029 -65.999s-23.833 -29.5 -38.5 -38.5s-29.5 -15 -44.5 -18s-27.167 -4.5 -36.5 -4.5s-20.833 1.5 -34.5 4.5s-27.667 8.5 -42 16.5s-28.5 19.167 -42.5 33.5s-25.333 32.5 -34 54.5l-39 92
c-4.66699 0 -8.33398 -0.333008 -11.001 -1c-44 -2.66699 -86 4 -126 20s-75.5 38.833 -106.5 68.5s-56.167 65 -75.5 106s-30.666 85.5 -33.999 133.5s2.16699 92.667 16.5 134s35 77.833 62 109.5s59.5 57 97.5 76s79 30.167 123 33.5c44 2.66699 86.167 -3 126.5 -17
s76.333 -34.833 108 -62.5s57.334 -61 77.001 -100s30.834 -82.5 33.501 -130.5c4.66699 -84.667 -11 -156.667 -47 -216s-83.667 -102 -143 -128l28 -70c8.66699 -22.667 19.167 -38.334 31.5 -47.001s24 -13 35 -13s20.5 3.16699 28.5 9.5s12.333 13.166 13 20.499
c1.33301 12.667 -3.16699 21.167 -13.5 25.5s-19.166 1.16602 -26.499 -9.50098l-62 46c4.66699 14 14.667 26.5 30 37.5s31 16.833 47 17.5c10 0 21.667 -1.33301 35 -4s26 -8.16699 38 -16.5s22.167 -20.166 30.5 -35.499s12.5 -35.666 12.5 -60.999zM536.997 339.001
c-2 30 -9.16895 58.166 -21.502 84.499s-28.166 48.833 -47.499 67.5s-41.166 33.167 -65.499 43.5s-49.833 14.5 -76.5 12.5c-26 -2 -50.167 -9.66699 -72.5 -23s-41.5 -30.666 -57.5 -51.999s-28.167 -45.666 -36.5 -72.999s-11.5 -56 -9.5 -86
c2 -26.667 8 -51.834 18 -75.501s23 -44.667 39 -63s34.167 -33.333 54.5 -45s41.833 -19.167 64.5 -22.5l-18 44h-46v85l125 -2l42 -109c34.667 18.667 62.167 47.5 82.5 86.5s28.833 81.5 25.5 127.5z" />
    <glyph glyph-name="R" unicode="R" horiz-adv-x="580" 
d="M560 -40l-0.000976562 -72.9971l-153 -5l-164 354h-49l1 -155h56l1 -83l-230 2l-2 81h64l-7 513h-55v92l225 1c43.333 0 80.5 -5.83301 111.5 -17.5s56.667 -27.334 77 -47.001s35.5 -42.334 45.5 -68.001s15.667 -52.167 17 -79.5
c1.33301 -19.333 -0.166992 -39.666 -4.5 -60.999s-12.166 -41.833 -23.499 -61.5s-26.5 -37.834 -45.5 -54.501s-43.167 -30.334 -72.5 -41.001l148 -296zM384.999 458.003c0 20 -2.99805 38.668 -8.99805 56.001s-16.333 32.166 -31 44.499s-34.334 21.833 -59.001 28.5
s-55.334 9 -92.001 7l1 -263c24.667 -0.666992 48.5 1 71.5 5s43.167 11.167 60.5 21.5s31.333 23.833 42 40.5s16 36.667 16 60z" />
    <glyph glyph-name="S" unicode="S" horiz-adv-x="430" 
d="M409 719l-3.00488 -225.002h-92c-3.33301 23.333 -13.166 43 -29.499 59s-35.833 24.333 -58.5 25c-21.333 0.666992 -41 -5.83301 -59 -19.5s-27.333 -34.5 -28 -62.5c0 -23.333 6.33301 -44 19 -62s28.334 -35.167 47.001 -51.5s38.834 -32.333 60.501 -48
s41.667 -32.834 60 -51.501s33.5 -39.334 45.5 -62.001s17.667 -49 17 -79c0 -18.667 -3.83301 -37 -11.5 -55s-18.667 -34 -33 -48s-32.5 -25.5 -54.5 -34.5s-47.333 -13.5 -76 -13.5c-30 0 -57.833 7.16699 -83.5 21.5s-46 33.333 -61 57s-22.667 50.334 -23 80.001
s9.83398 59.834 30.501 90.501l91 -51c-7.33301 -15.333 -11.166 -29.666 -11.499 -42.999s2 -25 7 -35s12.167 -18.167 21.5 -24.5s19.666 -9.5 30.999 -9.5c20.667 0 36 7.16699 46 21.5s15 31.166 15 50.499c0 15.333 -6.16699 30.166 -18.5 44.499s-27.833 29 -46.5 44
l-61 47.5c-22 16.667 -42.333 34.834 -61 54.501s-34.167 41.167 -46.5 64.5s-18.5 49.333 -18.5 78c0 32.667 5.16699 61.5 15.5 86.5s24 45.833 41 62.5s36.167 29.334 57.5 38.001s43 13.334 65 14.001c19.333 0.666992 39.333 -1.83301 60 -7.5
s36.334 -13.5 47.001 -23.5v69z" />
    <glyph glyph-name="T" unicode="T" horiz-adv-x="596" 
d="M576 526l-85 -1l-1 55l-131 -1l-4 -500h86l-2 -88l-282 -1l-3 96h90l-1 491l-129 -1l-1 -63l-92 1l-1 168l554 5z" />
    <glyph glyph-name="U" unicode="U" horiz-adv-x="631" 
d="M611 -14l-194.998 1.00293l-1 60c-8.66699 -10.667 -24.334 -21.334 -47.001 -32.001s-47.334 -16 -74.001 -16c-26 0 -51.333 3.66699 -76 11s-46.834 18.166 -66.501 32.499s-36.167 31.833 -49.5 52.5s-22 44 -26 70l-8 101
c-5.33301 67.333 -5.66602 170 -0.999023 308l-46 3l-1 98l182 -2c-1.33301 -40 -2.5 -81.833 -3.5 -125.5s-1.5 -86.167 -1.5 -127.5s0.166992 -80 0.5 -116s1.16602 -66.667 2.49902 -92c0.666992 -14.667 4.33398 -28.334 11.001 -41.001s15.167 -23.5 25.5 -32.5
s21.833 -16 34.5 -21s25.334 -7.5 38.001 -7.5c51.333 2 85.666 27.667 102.999 77v386l-81 1l-3 77l206 -2l-6 -579l83 -4v-80z" />
    <glyph glyph-name="V" unicode="V" horiz-adv-x="614" 
d="M594 681l-2 -90h-53l-157 -596l-271 -2l-4 84l103 4l-128 496l-62 1v94l147 1l145 -545l107 452h-94l-5 102z" />
    <glyph glyph-name="W" unicode="W" horiz-adv-x="812" 
d="M792 592l-61 -1l-133 -569l-120 -4l-80 264l-67 -292l-213 4l-3 75l77 -1l-118 514h-54l2 97l148 2l109 -488l66 290l114 1l68 -270l84 358l-83 1l-1 104l261 -2z" />
    <glyph glyph-name="X" unicode="X" horiz-adv-x="613" 
d="M593 673l-2 -79l-52 1l-172 -270l168 -256h53l-1 -98l-245 -2v81l52 2l-103 170l-100 -153l78 -1l-5 -78h-241l-3 99l57 1l155 232l-153 248l-53 -2l-4 89l239 -4v-77l-58 -2l95 -151l109 163l-69 -1l2 94z" />
    <glyph glyph-name="Y" unicode="Y" horiz-adv-x="580" 
d="M560 610l-51 -3l-169 -326l3 -213h72l3 -76l-263 -3l1 92h70l-3 182l-154 321h-49l2 84l130 2l139 -286l98 207h-67l-2 88l237 4z" />
    <glyph glyph-name="Z" unicode="Z" horiz-adv-x="509" 
d="M489 -6l-468 -4l282 564l-170 -1l-4 -81l-108 -1l-1 189l464 -3l-265 -560l176 -1l4 98h87z" />
    <glyph glyph-name="bracketleft" unicode="[" horiz-adv-x="237" 
d="M217 828l-1 -82l-71 1l-4 -814l68 -3l-1 -88l-173 -1l-15 983z" />
    <glyph glyph-name="backslash" unicode="\" horiz-adv-x="526" 
d="M506 -136l-92 -33l-394 959l112 51z" />
    <glyph glyph-name="bracketright" unicode="]" horiz-adv-x="237" 
d="M217 824l-14 -983l-174 1v88l68 3l-4 814l-72 -1l-1 82z" />
    <glyph glyph-name="asciicircum" unicode="^" horiz-adv-x="327" 
d="M307 597l-41 -36l-95 62l-96 -75l-55 44l140 127z" />
    <glyph glyph-name="underscore" unicode="_" horiz-adv-x="605" 
d="M605 -31l-1 -93l-599 -15l-5 117z" />
    <glyph glyph-name="grave" unicode="`" horiz-adv-x="272" 
d="M252 639l-82 5l-150 194l119 -9z" />
    <glyph glyph-name="a" unicode="a" horiz-adv-x="466" 
d="M446 -14l-155.999 -4.00098v38c-19.333 -18.667 -44.166 -29.5 -74.499 -32.5s-60 0.5 -89 10.5s-53.833 26.167 -74.5 48.5s-31.334 49.833 -32.001 82.5c-0.666992 47.333 14.5 85.333 45.5 114s70.167 44 117.5 46c22 1.33301 41.5 -0.5 58.5 -5.5
s30.5 -11.167 40.5 -18.5c0 20.667 -5.5 38.834 -16.5 54.501s-25.667 26.167 -44 31.5s-39.333 4.83301 -63 -1.5s-48.5 -20.5 -74.5 -42.5l-48 75c12 12 27.333 23.333 46 34s39.5 18.667 62.5 24s47.333 7 73 5s51.167 -9.66699 76.5 -23
c28 -14.667 48.833 -32.5 62.5 -53.5s23.167 -45.333 28.5 -73s8.16602 -59.167 8.49902 -94.5s0.833008 -75 1.5 -119l47 1zM285.001 104.999l-2.00098 73.001c-8 5.33301 -18.167 10.166 -30.5 14.499s-25.833 6.83301 -40.5 7.5c-26.667 0 -46.667 -6.16699 -60 -18.5
s-19.666 -28.833 -18.999 -49.5c0 -14.667 5 -27.5 15 -38.5s22.5 -18.5 37.5 -22.5s31.333 -3.5 49 1.5s34.5 15.833 50.5 32.5z" />
    <glyph glyph-name="b" unicode="b" horiz-adv-x="543" 
d="M523 190c-0.666992 -28 -6.33301 -53.668 -17 -77.001s-25.167 -43.5 -43.5 -60.5s-39.666 -30.333 -63.999 -40s-50.166 -14.5 -77.499 -14.5c-22.667 -0.666992 -45.334 2.5 -68.001 9.5s-41.334 16.167 -56.001 27.5v-56h-177v94l65 1l7 508l-66 -1l-4 95l174 4
l-2 -304c39.333 26.667 81.333 39 126 37c38 -0.666992 70 -7.5 96 -20.5s47 -30 63 -51s27.5 -44.667 34.5 -71s10.167 -53.166 9.5 -80.499zM411.001 207.999c-1.33301 30 -12.333 54.333 -33 73s-43.667 28 -69 28c-22 0 -42.667 -5.5 -62 -16.5s-34 -24.167 -44 -39.5
v-105c10.667 -16.667 26.167 -29.167 46.5 -37.5s39.833 -12.166 58.5 -11.499c34 0.666992 60 11.167 78 31.5s26.333 46.166 25 77.499z" />
    <glyph glyph-name="c" unicode="c" horiz-adv-x="475" 
d="M455 411l-82.999 -149c-14.667 22.667 -34.834 40 -60.501 52s-50.5 17.333 -74.5 16c-30.667 -1.33301 -55.667 -12.5 -75 -33.5s-28.666 -49.5 -27.999 -85.5c0 -36.667 10.5 -66 31.5 -88s45.5 -33.667 73.5 -35c21.333 -0.666992 44.5 4.66602 69.5 15.999
s44.167 26.666 57.5 45.999l55 -65c-27.333 -32 -56.666 -55.333 -87.999 -70s-63.333 -22 -96 -22c-28.667 0 -56.167 5.83301 -82.5 17.5s-49.333 27.5 -69 47.5s-35.334 42.833 -47.001 68.5s-17.834 52.5 -18.501 80.5c-0.666992 30.667 4.33301 59.334 15 86.001
s25.334 50 44.001 70s40.667 35.833 66 47.5s52.666 17.834 81.999 18.501c18.667 0 37.5 -1.16699 56.5 -3.5s36.833 -8.83301 53.5 -19.5l28 53z" />
    <glyph glyph-name="d" unicode="d" horiz-adv-x="539" 
d="M519 695l-0.00195312 -93.998l-61 -4l-7 -534l50 2v-95l-160 -4l1 67c-11.333 -12 -27.333 -21.167 -48 -27.5s-40.667 -9.83301 -60 -10.5c-26.667 -0.666992 -52.667 3.66602 -78 12.999s-48 22.833 -68 40.5s-36.167 39.167 -48.5 64.5s-18.833 54 -19.5 86
c-0.666992 28.667 3.83301 57 13.5 85s23.834 52.833 42.501 74.5s41.834 39.167 69.501 52.5s59.167 19.666 94.5 18.999c18 0 36.333 -3 55 -9s33.667 -14 45 -24v301zM336.998 286.002c-12.667 14.667 -28.333 26.333 -47 35s-35.334 12.334 -50.001 11.001
c-18 -1.33301 -34.167 -5.83301 -48.5 -13.5s-26.166 -17.334 -35.499 -29.001s-16.5 -24.167 -21.5 -37.5s-7.5 -26.666 -7.5 -39.999c-0.666992 -34.667 9.33301 -64.167 30 -88.5s47.667 -36.833 81 -37.5c19.333 -0.666992 37.5 4.16602 54.5 14.499
s31.5 24.833 43.5 43.5z" />
    <glyph glyph-name="e" unicode="e" horiz-adv-x="447" 
d="M426 175l-295 -9.00195c0 -12 3.16699 -23 9.5 -33s14.333 -18.833 24 -26.5s20.5 -13.667 32.5 -18s24 -6.83301 36 -7.5c17.333 -0.666992 34.833 2 52.5 8s31.834 14.667 42.501 26l57 -73c-20.667 -22.667 -43.667 -38.167 -69 -46.5
s-52.666 -12.166 -81.999 -11.499c-28.667 0.666992 -56.334 6.33398 -83.001 17.001s-50 26.167 -70 46.5s-35.5 45.5 -46.5 75.5s-15.5 65 -13.5 105c2 36 10 67.167 24 93.5s31.167 47.833 51.5 64.5s42.5 29 66.5 37s47 12 69 12c18 0 38.833 -3.5 62.5 -10.5
s45.667 -20 66 -39s37.166 -45.5 50.499 -79.5s18.333 -77.667 15 -131zM321 261.998c-3.33301 25.333 -14.166 44.6689 -32.499 58.002s-37.5 19.666 -57.5 18.999c-20.667 -0.666992 -40.834 -8.33398 -60.501 -23.001s-31.167 -35 -34.5 -61z" />
    <glyph glyph-name="f" unicode="f" horiz-adv-x="420" 
d="M400 577c-1.33301 -20.667 -5.49805 -38.3301 -12.498 -52.9971s-15.833 -26.334 -26.5 -35.001s-22.334 -14.834 -35.001 -18.501s-25 -5.16699 -37 -4.5c-28 1.33301 -50.667 12 -68 32s-21 47 -11 81l71 -12c-0.666992 -5.33301 0.666016 -9.66602 3.99902 -12.999
s7.66602 -5 12.999 -5c6.66699 -0.666992 11.334 1.66602 14.001 6.99902s4.33398 11.333 5.00098 18c0.666992 11.333 -4 22.166 -14 32.499s-25.333 15.5 -46 15.5s-36.5 -7.33301 -47.5 -22s-16.5 -31.667 -16.5 -51l2 -161l133 1v-87l-135 -3l-5 -205l96 2v-99l-263 -2
l-1 93l75 3l-7 424c-0.666992 35.333 3.5 65.5 12.5 90.5s21 45.5 36 61.5s32.667 27.667 53 35s41.5 11 63.5 11c20.667 0 40 -3 58 -9s33.833 -14.667 47.5 -26s24.167 -25.5 31.5 -42.5s10.666 -36.5 9.99902 -58.5z" />
    <glyph glyph-name="g" unicode="g" horiz-adv-x="527" 
d="M507 353l-47.999 -4.99512l-12 -446c-0.666992 -33.333 -6.33398 -62 -17.001 -86s-24.334 -43.5 -41.001 -58.5s-35.834 -26.167 -57.501 -33.5s-44.5 -11.333 -68.5 -12c-18 -0.666992 -36 2 -54 8s-34.5 14.5 -49.5 25.5s-27.333 24.667 -37 41
s-14.834 34.833 -15.501 55.5c-1.33301 33.333 7 63.333 25 90s45 40.667 81 42c23.333 1.33301 44 -5 62 -19s31 -33.333 39 -58l-73 -36c-8 9.33301 -15 11.833 -21 7.5s-9 -10.833 -9 -19.5c0 -6.66699 3.66699 -13.834 11 -21.501s23 -10.834 47 -9.50098
c17.333 1.33301 32.833 9.83301 46.5 25.5s20.834 36.167 21.501 61.5l2 130c-16.667 -12.667 -33.334 -21.334 -50.001 -26.001s-40.334 -6.66699 -71.001 -6c-27.333 0.666992 -53.166 7 -77.499 19s-45.5 27.667 -63.5 47s-32.167 42 -42.5 68s-15.166 53.667 -14.499 83
s6.33398 56.666 17.001 81.999s24.834 47 42.501 65s38.5 32.167 62.5 42.5s49.667 15.166 77 14.499c48 -1.33301 88.333 -13.333 121 -36l4 61l163 -3v-93zM334.001 280.005c-9.33301 13.333 -22.166 24.668 -38.499 34.001s-35.833 13.666 -58.5 12.999
c-35.333 -1.33301 -61.333 -13.5 -78 -36.5s-25.334 -50.167 -26.001 -81.5c-0.666992 -28.667 9.83301 -53.5 31.5 -74.5s48.5 -31.833 80.5 -32.5c16.667 0 33 3.66699 49 11s28.667 19 38 35z" />
    <glyph glyph-name="h" unicode="h" horiz-adv-x="528" 
d="M508 7l-155.997 -2.99805c1.33301 46.667 2.66602 89.667 3.99902 129s0.833008 73.666 -1.5 102.999s-7.33301 52.666 -15 69.999s-19.834 27.333 -36.501 30c-12.667 2 -24.834 0.833008 -36.501 -3.5s-22.334 -10.5 -32.001 -18.5s-18.167 -17.333 -25.5 -28
s-13.666 -21.334 -18.999 -32.001l-3 -178l59 2v-92l-221 4l-5 86h55l5 516l-51 -1v95l167 1l-2 -281c14.667 16 35 29 61 39s55.667 11.333 89 4c32 -6.66699 56.667 -20.667 74 -42s29.833 -47.666 37.5 -78.999s12 -66.5 13 -105.5s1.16699 -79.5 0.5 -121.5l39 -1v-93z
" />
    <glyph glyph-name="i" unicode="i" horiz-adv-x="287" 
d="M204 543c1.33301 -20.667 -4.83203 -38.167 -18.499 -52.5s-30.834 -21.5 -51.501 -21.5s-39.167 5.66699 -55.5 17s-24.5 28.666 -24.5 51.999c0 20.667 6.5 38.834 19.5 54.501s29.833 23.5 50.5 23.5s39 -6.33301 55 -19s24.333 -30.667 25 -54zM267.002 1h-229l-3 90
l69 3l3 232l-86 4l-1 94l189 5l1 -331l57 -2v-95z" />
    <glyph glyph-name="j" unicode="j" horiz-adv-x="284" 
d="M254 547c1.33301 -20 -4.66504 -37 -17.998 -51s-30 -21 -50 -21c-19.333 0 -37 5.33301 -53 16s-24 27.334 -24 50.001c0 20 6.33301 37.5 19 52.5s29 22.5 49 22.5c19.333 0 36.666 -5.83301 51.999 -17.5s23.666 -28.834 24.999 -51.501zM264.002 -60
c0.666992 -32 -3.66211 -60.8311 -12.9951 -86.498s-21.833 -47.5 -37.5 -65.5s-34.167 -32 -55.5 -42s-43.666 -15.333 -66.999 -16c-20.667 -0.666992 -40.834 1.66602 -60.501 6.99902s-37 14 -52 26s-27.333 27.5 -37 46.5s-14.834 41.5 -15.501 67.5
c-0.666992 16 2 31 8 45s14.167 26.5 24.5 37.5s22.166 19.667 35.499 26s27 9.5 41 9.5c16.667 0 31 -2.33301 43 -7s22 -11 30 -19s14 -16.833 18 -26.5s7 -18.834 9 -27.501l-74 -33c-2 5.33301 -5 8.83301 -9 10.5s-7.83301 2 -11.5 1s-6.83398 -3.33301 -9.50098 -7
s-3.33398 -8.83398 -2.00098 -15.501c2 -11.333 8.5 -20.333 19.5 -27s24.167 -8.66699 39.5 -6c22.667 2.66699 39.167 14.334 49.5 35.001s15.166 52 14.499 94l-7 378h-108l-1 78l221 2z" />
    <glyph glyph-name="k" unicode="k" horiz-adv-x="566" 
d="M546 584l-207 -247l128 -245l57 -1l8 -106l-131 -3l-141 267l-69 -79l-1 -87l93 -1l1 -88h-264l1 90l64 -1l-6 533h-58v81l182 -1l-4 -360l210 254z" />
    <glyph glyph-name="l" unicode="l" horiz-adv-x="281" 
d="M261 0l-218 -4l-1 103l55 -1l-4 540l-72 -1l-1 82l180 -3l2 -621l58 -2z" />
    <glyph glyph-name="m" unicode="m" horiz-adv-x="722" 
d="M702 12l-158 -1.00293l-1 288c0 24.667 -6.16699 42.667 -18.5 54s-25.666 16.666 -39.999 15.999s-27.5 -7.33398 -39.5 -20.001s-18 -30.667 -18 -54l-0.5 -51.5c-0.333008 -34.333 0.166992 -96.166 1.5 -185.499h72v-68l-192 -3
c2.66699 113.333 3.83398 196.833 3.50098 250.5l-0.5 80.5c0 16 -5.33301 28.5 -16 37.5s-22.667 13.333 -36 13s-25.333 -6.16602 -36 -17.499s-16 -29 -16 -53v-10c0 -6.66699 0.166992 -20.5 0.5 -41.5s0.666016 -50.833 0.999023 -89.5s0.5 -89.667 0.5 -153l-174 1
l-1 92l60 2l-9 322l-64 -2l-1 73l172 1l4 -67c12 14.667 26.333 25.167 43 31.5s36.667 9.83301 60 10.5c18.667 0 37.5 -4.66699 56.5 -14s31.833 -22 38.5 -38c13.333 18.667 30.5 31.834 51.5 39.501s40.833 11.834 59.5 12.501
c41.333 1.33301 75.666 -11.667 102.999 -39s41.333 -64.666 42 -111.999v-218h51z" />
    <glyph glyph-name="n" unicode="n" horiz-adv-x="525" 
d="M505 -9l-159.005 1.00098c2 104.667 3 180.167 3 226.5v69.5c0 16 -5.66699 29.333 -17 40s-25.166 17 -41.499 19s-33.166 -0.833008 -50.499 -8.5s-31.333 -21.5 -42 -41.5l-5 -295l-163 -1v72l56 2l2 325l-66 -3l-2 73l176 3v-67c15.333 17.333 33.5 29 54.5 35
s39.833 9.33301 56.5 10c24.667 1.33301 46.334 -2.33398 65.001 -11.001s34.334 -20 47.001 -34s22.334 -29.5 29.001 -46.5s10 -33.167 10 -48.5v-60.5c0 -40.333 -0.333008 -95.833 -1 -166.5l48 3v-96z" />
    <glyph glyph-name="o" unicode="o" horiz-adv-x="484" 
d="M464 218c-0.666992 -31.333 -5.99902 -60.832 -15.999 -88.499s-24 -51.667 -42 -72s-39.667 -36.833 -65 -49.5s-54 -19.667 -86 -21c-30.667 -1.33301 -59.5 2.33398 -86.5 11.001s-50.833 21.667 -71.5 39s-37.667 38.666 -51 63.999s-21.666 53.666 -24.999 84.999
c-3.33301 36.667 0.166992 70.167 10.5 100.5s25.666 56.666 45.999 78.999s44.666 40 72.999 53s58.833 20.167 91.5 21.5c30.667 1.33301 59.667 -4 87 -16s51 -28.333 71 -49s35.833 -44.667 47.5 -72s17.167 -55.666 16.5 -84.999zM361.001 213.001
c0 16 -3.33203 31.835 -9.99902 47.502s-15.5 29.667 -26.5 42s-23.667 22.166 -38 29.499s-29.5 11 -45.5 11c-16 -0.666992 -31.167 -5.16699 -45.5 -13.5s-27 -19.333 -38 -33s-19.333 -29.334 -25 -47.001s-7.83398 -35.834 -6.50098 -54.501
c2.66699 -35.333 15.667 -62.666 39 -81.999s51 -29 83 -29c16 0 30.833 3.66699 44.5 11s25.5 17 35.5 29s18 25.833 24 41.5s9 31.5 9 47.5z" />
    <glyph glyph-name="p" unicode="p" horiz-adv-x="540" 
d="M520 225c0.666992 -27.333 -2.83398 -54.3301 -10.501 -80.9971s-20 -50.834 -37 -72.501s-38.833 -39.334 -65.5 -53.001s-59 -20.834 -97 -21.501c-46 -1.33301 -88.333 11.334 -127 38.001l1 -206l84 2l3 -103l-251 4l1 84l56 3l-3 536l-50 1v84l162 6v-61
c14.667 11.333 33.5 20.5 56.5 27.5s45.833 10.167 68.5 9.5c27.333 -0.666992 53.333 -6 78 -16s46.667 -23.833 66 -41.5s34.833 -38.334 46.5 -62.001s17.834 -49.5 18.501 -77.5zM397.999 208.003c2 30.667 -5.83398 57 -23.501 79s-43.167 33.333 -76.5 34
c-19.333 0 -39.166 -4.16699 -59.499 -12.5s-35.833 -20.5 -46.5 -36.5v-114c10 -16 24.667 -29.333 44 -40s40 -16 62 -16c25.333 0 48 10 68 30s30.667 45.333 32 76z" />
    <glyph glyph-name="q" unicode="q" horiz-adv-x="544" 
d="M688 -161c-0.666992 -26 -5.83398 -48.5059 -15.501 -67.5059s-22 -34.5 -37 -46.5s-32.333 -20.667 -52 -26s-39.834 -7.66602 -60.501 -6.99902c-46.667 0.666992 -86 19.334 -118 56.001s-48.667 87 -50 151l-2 145c-19.333 -12.667 -39.166 -23.167 -59.499 -31.5
s-41.5 -12.166 -63.5 -11.499c-38 0.666992 -70.333 7.66699 -97 21s-48.5 30.333 -65.5 51s-29.333 44 -37 70s-11.167 52.667 -10.5 80c0.666992 28 6.83398 53.833 18.501 77.5s27.167 44.334 46.5 62.001s41.333 31.5 66 41.5s50.667 15.333 78 16
c22.667 0 45.5 -4 68.5 -12s41.833 -17.667 56.5 -29v55l165 -9l-1 -91l-53 -1l-2 -402c-0.666992 -42 4 -73.667 14 -95s26.333 -33.666 49 -36.999c15.333 -2 28.666 0.333008 39.999 7s18 15.667 20 27c1.33301 6.66699 0.666016 11.834 -2.00098 15.501s-6 6 -10 7
s-8 0.666992 -12 -1s-6.66699 -5.16699 -8 -10.5l-74 33c2.66699 18 11.334 35.833 26.001 53.5s39.334 26.5 74.001 26.5c14 0 27.667 -3.16699 41 -9.5s25 -15 35 -26s18 -23.5 24 -37.5s8.66699 -29 8 -45zM348 167.994l0.000976562 102
c-10.667 16 -26.167 28.167 -46.5 36.5s-40.166 12.5 -59.499 12.5c-34 -0.666992 -59.667 -12 -77 -34s-25.333 -48.667 -24 -80c1.33301 -30 12.166 -54 32.499 -72s43.166 -27 68.499 -27c22 0 42.667 6.33301 62 19s34 27 44 43z" />
    <glyph glyph-name="r" unicode="r" horiz-adv-x="431" 
d="M409 326c4.66699 -28.667 1.66602 -51.8311 -9.00098 -69.498s-21.667 -31.167 -33 -40.5l-74 57c15.333 11.333 20.333 24.166 15 38.499s-18 22.833 -38 25.5c-8 1.33301 -16.5 1 -25.5 -1s-17.5 -5.83301 -25.5 -11.5s-14.667 -12.834 -20 -21.501s-8 -19 -8 -31
l-2 -196l90 -2l2 -75l-254 -3l-1 87h62l-2 277l-65 3l-1 83h165l-1 -51c11.333 13.333 25.5 22.5 42.5 27.5s34.167 7.5 51.5 7.5c8.66699 0 19.834 -1.66699 33.501 -5s27.167 -9 40.5 -17s25.333 -18.667 36 -32s17.667 -30 21 -50z" />
    <glyph glyph-name="s" unicode="s" horiz-adv-x="339" 
d="M319 320l-79.998 -4.00195c-0.666992 20 -5.83398 34.833 -15.501 44.5s-22.834 14.834 -39.501 15.501c-14.667 0 -28.834 -4.33301 -42.501 -13s-20.167 -22.334 -19.5 -41.001c0.666992 -18 10.667 -33.667 30 -47l63 -42c22.667 -14.667 43.167 -31.834 61.5 -51.501
s26.833 -45.167 25.5 -76.5c-1.33301 -32.667 -11.666 -60.667 -30.999 -84s-52 -35.333 -98 -36c-22.667 0 -44.334 3.83301 -65.001 11.5s-37.667 19 -51 34s-22 33.5 -26 55.5s-1 47 9 75l85 -32c-6.66699 -17.333 -6.5 -31.166 0.5 -41.499s15.833 -16.5 26.5 -18.5
s21.167 0.166992 31.5 6.5s15.833 17.5 16.5 33.5c0 16 -8.83301 30.167 -26.5 42.5l-59.5 40.5c-22 14.667 -42.5 31.667 -61.5 51s-29.5 44 -31.5 74c-3.33301 36.667 2.83398 66.334 18.501 89.001s35 39 58 49s47 13.833 72 11.5s45.833 -10.166 62.5 -23.499v42l81 3z
" />
    <glyph glyph-name="t" unicode="t" horiz-adv-x="443" 
d="M423 129c-0.666992 -27.333 -5.33398 -50.3301 -14.001 -68.9971s-20 -33.834 -34 -45.501s-30.333 -20.167 -49 -25.5s-38.334 -8 -59.001 -8s-41.167 3.66699 -61.5 11s-38.833 18.666 -55.5 33.999s-30.167 34.833 -40.5 58.5s-15.5 52.167 -15.5 85.5l-2 225h-71
l-1 102l76 1l-2 182h105l2 -180l166 2l-3 -86l-162 -2l3 -233c0 -12 0.833008 -23.833 2.5 -35.5s4.83398 -22 9.50098 -31s11.5 -16.333 20.5 -22s20.5 -8.83398 34.5 -9.50098c21.333 -0.666992 36 3.83301 44 13.5s12.333 19.5 13 29.5
c1.33301 8.66699 0.5 15.334 -2.5 20.001s-6.66699 7.16699 -11 7.5s-8.66602 -1.66699 -12.999 -6s-7.16602 -10.833 -8.49902 -19.5l-71 31c0.666992 18 8 36 22 54s38.333 27.667 73 29c32 1.33301 57.667 -9.33398 77 -32.001s28.666 -49.667 27.999 -81z" />
    <glyph glyph-name="u" unicode="u" horiz-adv-x="511" 
d="M491 46l-2.00098 -75.998h-137l3 67c-11.333 -12.667 -24.333 -23.334 -39 -32.001s-38 -13 -70 -13c-17.333 0 -35.166 3 -53.499 9s-35.333 15.167 -51 27.5s-29 27.666 -40 45.999s-17.833 39.833 -20.5 64.5l-4.5 64.5c-3 43 -2.5 99.167 1.5 168.5h-55l-3 64l163 -1
c-1.33301 -56.667 -2.16602 -103.167 -2.49902 -139.5s-0.333008 -65 0 -86s0.666016 -35.667 0.999023 -44l0.5 -12.5c0 -23.333 9 -42 27 -56s36 -20.667 54 -20c38 2 64 20.667 78 56l5 252h-53l-2 82l166 -5l-11 -415z" />
    <glyph glyph-name="v" unicode="v" horiz-adv-x="494" 
d="M474 498l-6 -95l-41 -1l-121 -410h-123l-111 354l-47 1l-5 88l203 5l4 -83l-51 -1l69 -220l74 276h-42l3 82z" />
    <glyph glyph-name="w" unicode="w" horiz-adv-x="683" 
d="M663 489l-128 -505l-140 -5l-65 224l-67 -210l-198 2l-6 80l81 2l-73 275l-47 -1l1 86l134 4l70 -266l66 205l100 -3l67 -266l74 293l-110 2l1 85z" />
    <glyph glyph-name="x" unicode="x" horiz-adv-x="463" 
d="M443 456l-2 -79l-30 -1l-120 -158l113 -150h37l-1 -67l-202 -8l-7 75l59 1l-60 76l-67 -89h40v-64l-179 2l-1 82l43 -1l105 139l-107 141h-44l2 87h186l3 -64l-60 -3l73 -92l68 91l-41 1l3 78z" />
    <glyph glyph-name="y" unicode="y" horiz-adv-x="505" 
d="M485 415l-196.994 -573.001c-6.66699 -20 -15.834 -36.5 -27.501 -49.5s-24.334 -23.167 -38.001 -30.5s-27.334 -12.5 -41.001 -15.5s-25.834 -4.5 -36.501 -4.5c-11.333 0 -24.5 1.33301 -39.5 4s-29.5 8 -43.5 16s-25.833 19.667 -35.5 35s-14.5 35.666 -14.5 60.999
c0 22 3.83301 40 11.5 54s17 24.667 28 32s22.833 12.333 35.5 15s24 4 34 4c19.333 -0.666992 34.666 -6.5 45.999 -17.5s17.666 -22.167 18.999 -33.5l-53 -36c-7.33301 9.33301 -15.5 11.5 -24.5 6.5s-13.167 -12.833 -12.5 -23.5c0 -8.66699 4.16699 -15.667 12.5 -21
s18 -7.66602 29 -6.99902s22.167 5.33398 33.5 14.001s20.333 22.667 27 42l52 161l-141 211l-80 3l-7 102l132 5l138 -196l54 169l-78 -1l-3 72z" />
    <glyph glyph-name="z" unicode="z" horiz-adv-x="452" 
d="M431 90c-3.33301 -29.333 -15.001 -52.668 -35.001 -70.001s-51.667 -26 -95 -26l-266 2l203 342l-132 -3l-4 -75l-76 -2l-6 167l382 -2l-205 -338l124 -4c11.333 0 19 3 23 9s5.66699 11.667 5 17c0 8.66699 -5.16699 14.5 -15.5 17.5s-18.833 -3.16699 -25.5 -18.5
l-63 28c7.33301 19.333 19.833 35.333 37.5 48s38.5 18.334 62.5 17.001c23.333 -2 44.333 -13.167 63 -33.5s26.334 -45.5 23.001 -75.5z" />
    <glyph glyph-name="braceleft" unicode="{" horiz-adv-x="311" 
d="M291 -127l-35 -99c-46.667 10 -82 27.833 -106 53.5s-41.333 55.667 -52 90s-16.834 71.333 -18.501 111l-5 116c-1.66699 37.667 -6 72.667 -13 105s-20.833 58.5 -41.5 78.5c20.667 20 34.5 46.167 41.5 78.5s11.333 67.5 13 105.5l5 116.5
c1.66699 39.667 7.83398 76.667 18.501 111s28 64.333 52 90s59.333 43.167 106 52.5l35 -99c-29.333 -11.333 -50.833 -28 -64.5 -50s-23 -46.667 -28 -74s-7.16699 -56.333 -6.5 -87s0.666992 -61 0 -91s-3.33398 -58.333 -8.00098 -85s-14.667 -49.334 -30 -68.001
c15.333 -19.333 25.333 -42.166 30 -68.499s7.33398 -54.5 8.00098 -84.5s0.666992 -60.333 0 -91s1.5 -59.667 6.5 -87s14.333 -52 28 -74s35.167 -38.667 64.5 -50z" />
    <glyph glyph-name="bar" unicode="|" horiz-adv-x="157" 
d="M137 774l-9 -861l-93 2l-15 854z" />
    <glyph glyph-name="braceright" unicode="}" horiz-adv-x="311" 
d="M291 328c-20.667 -20 -34.5 -46.1689 -41.5 -78.502s-11.333 -67.333 -13 -105l-5 -116c-1.66699 -39.667 -7.83398 -76.667 -18.501 -111s-28 -64.333 -52 -90s-59.333 -43.5 -106 -53.5l-35 99c29.333 12 50.833 28.833 64.5 50.5s23 46.167 28 73.5
s7.16699 56.333 6.5 87s-0.666992 61 0 91s3.33398 58.333 8.00098 85s14.667 49.334 30 68.001c-15.333 18.667 -25.333 41.334 -30 68.001s-7.33398 55 -8.00098 85s-0.666992 60.333 0 91s-1.5 59.667 -6.5 87s-14.333 52 -28 74s-35.167 38.667 -64.5 50l35 99
c46.667 -9.33301 82 -26.833 106 -52.5s41.333 -55.667 52 -90s16.834 -71.333 18.501 -111l5 -116.5c1.66699 -38 6 -73.167 13 -105.5s20.833 -58.5 41.5 -78.5z" />
    <glyph glyph-name="asciitilde" unicode="~" horiz-adv-x="384" 
d="M364 735c-30.667 -30.667 -58.3311 -47.499 -82.998 -50.499s-47.834 -1.83301 -69.501 3.5s-42.834 9.66602 -63.501 12.999s-42 -3.66699 -64 -21l-64 57c38 45.333 93.333 55 166 29c29.333 -10.667 54.833 -11.667 76.5 -3s35.167 17.667 40.5 27z" />
    <glyph glyph-name="exclamdown" unicode="&#xa1;" horiz-adv-x="169" 
d="M129 737l-2 -91l-105 -1l-2 94zM149 10l-116 -5l8 596l93 -1z" />
    <glyph glyph-name="cent" unicode="&#xa2;" horiz-adv-x="419" 
d="M399 480l-77.999 -125.999c-12.667 17.333 -27.334 30.666 -44.001 39.999s-38 13.666 -64 12.999c-23.333 -0.666992 -44.833 -8.83398 -64.5 -24.501s-29.5 -38.5 -29.5 -68.5c0.666992 -30.667 10.167 -54 28.5 -70s39.5 -24.333 63.5 -25
c19.333 -0.666992 38.5 3.16602 57.5 11.499s34.5 20.5 46.5 36.5l54 -58c-18.667 -20.667 -38.167 -37.167 -58.5 -49.5s-40.5 -20.166 -60.5 -23.499l-2 -73l-80 4l-1 70c-20 3.33301 -38.833 10.5 -56.5 21.5s-33.167 24.333 -46.5 40s-24 33 -32 52s-12 38.5 -12 58.5
c0 22.667 3.5 44.167 10.5 64.5s16.833 38.333 29.5 54s27.834 28.834 45.501 39.501s36.5 18 56.5 22l-1 94l99 6l-2 -99c5.33301 -1.33301 11.166 -3.16602 17.499 -5.49902s12.833 -5.5 19.5 -9.5l25 45z" />
    <glyph glyph-name="sterling" unicode="&#xa3;" horiz-adv-x="528" 
d="M508 -30c-22.667 -8.66699 -47.6699 -11.8311 -75.0029 -9.49805s-56.666 5.16602 -87.999 8.49902s-64.166 4.66602 -98.499 3.99902s-69.833 -8.33398 -106.5 -23.001l-56 89c13.333 9.33301 25.166 21.833 35.499 37.5s18.5 33 24.5 52s9.5 39.167 10.5 60.5
s-1.16699 42.333 -6.5 63l-115 -7l-13 109l76 2c-17.333 34.667 -28.666 66 -33.999 94s-6.16602 53.5 -2.49902 76.5s11 43.833 22 62.5s24.5 35.667 40.5 51c18 17.333 39.167 30 63.5 38s49 12.833 74 14.5s48.833 1 71.5 -2s41 -7.16699 55 -12.5l18 43l92 -32l-71 -150
c-18 16.667 -41.333 30 -70 40s-59 12.667 -91 8c-18.667 -3.33301 -35.167 -11.166 -49.5 -23.499s-24.166 -28.666 -29.499 -48.999s-5 -43.833 1 -70.5s20.333 -55.334 43 -86.001l144 3v-97l-105 -6c4.66699 -33.333 4.16699 -67.166 -1.5 -101.499
s-14.834 -62.5 -27.501 -84.5c20.667 4 41.667 5.16699 63 3.5s42.833 -3.66699 64.5 -6s43.167 -3.83301 64.5 -4.5s42.333 2.66602 63 9.99902z" />
    <glyph glyph-name="currency" unicode="&#xa4;" 
d="M353 401c0 -20.667 -3.83301 -40 -11.5 -58s-18.334 -33.667 -32.001 -47s-29.5 -23.833 -47.5 -31.5s-37.333 -11.5 -58 -11.5s-40 3.83301 -58 11.5s-33.667 18.167 -47 31.5s-23.833 29 -31.5 47s-11.5 37.333 -11.5 58s3.83301 40 11.5 58s18.167 33.667 31.5 47
s29 23.833 47 31.5s37.333 11.5 58 11.5s40 -3.83301 58 -11.5s33.833 -18.167 47.5 -31.5s24.334 -29 32.001 -47s11.5 -37.333 11.5 -58zM308 401c0 28.667 -10 53.167 -30 73.5s-44.667 30.5 -74 30.5c-28.667 0 -53.167 -10.167 -73.5 -30.5s-30.5 -44.833 -30.5 -73.5
s10.167 -53.167 30.5 -73.5s44.833 -30.5 73.5 -30.5c29.333 0 54 10.167 74 30.5s30 44.833 30 73.5z" />
    <glyph glyph-name="yen" unicode="&#xa5;" 
d="M353 401c0 -20.667 -3.83301 -40 -11.5 -58s-18.334 -33.667 -32.001 -47s-29.5 -23.833 -47.5 -31.5s-37.333 -11.5 -58 -11.5s-40 3.83301 -58 11.5s-33.667 18.167 -47 31.5s-23.833 29 -31.5 47s-11.5 37.333 -11.5 58s3.83301 40 11.5 58s18.167 33.667 31.5 47
s29 23.833 47 31.5s37.333 11.5 58 11.5s40 -3.83301 58 -11.5s33.833 -18.167 47.5 -31.5s24.334 -29 32.001 -47s11.5 -37.333 11.5 -58zM308 401c0 28.667 -10 53.167 -30 73.5s-44.667 30.5 -74 30.5c-28.667 0 -53.167 -10.167 -73.5 -30.5s-30.5 -44.833 -30.5 -73.5
s10.167 -53.167 30.5 -73.5s44.833 -30.5 73.5 -30.5c29.333 0 54 10.167 74 30.5s30 44.833 30 73.5z" />
    <glyph glyph-name="brokenbar" unicode="&#xa6;" 
d="M353 401c0 -20.667 -3.83301 -40 -11.5 -58s-18.334 -33.667 -32.001 -47s-29.5 -23.833 -47.5 -31.5s-37.333 -11.5 -58 -11.5s-40 3.83301 -58 11.5s-33.667 18.167 -47 31.5s-23.833 29 -31.5 47s-11.5 37.333 -11.5 58s3.83301 40 11.5 58s18.167 33.667 31.5 47
s29 23.833 47 31.5s37.333 11.5 58 11.5s40 -3.83301 58 -11.5s33.833 -18.167 47.5 -31.5s24.334 -29 32.001 -47s11.5 -37.333 11.5 -58zM308 401c0 28.667 -10 53.167 -30 73.5s-44.667 30.5 -74 30.5c-28.667 0 -53.167 -10.167 -73.5 -30.5s-30.5 -44.833 -30.5 -73.5
s10.167 -53.167 30.5 -73.5s44.833 -30.5 73.5 -30.5c29.333 0 54 10.167 74 30.5s30 44.833 30 73.5z" />
    <glyph glyph-name="section" unicode="&#xa7;" horiz-adv-x="524" 
d="M504 719l-3.00586 -206.996l-100 -4c-2 21.333 -9 39.166 -21 53.499s-29.333 21.833 -52 22.5c-22 1.33301 -40.167 -3.33398 -54.5 -14.001s-21.5 -28.667 -21.5 -54c0 -23.333 6.16699 -43.833 18.5 -61.5s27.833 -34.334 46.5 -50.001s38.834 -31 60.501 -46
s41.834 -31.5 60.501 -49.5s34.167 -38.167 46.5 -60.5s18.5 -48.5 18.5 -78.5c0 -34 -9.5 -64.5 -28.5 -91.5s-46.833 -45.833 -83.5 -56.5c0.666992 -4 1.16699 -8.16699 1.5 -12.5s0.5 -8.83301 0.5 -13.5c0 -18.667 -3.33301 -37.5 -10 -56.5s-17.167 -36.333 -31.5 -52
s-33 -28.334 -56 -38.001s-51.167 -14.5 -84.5 -14.5c-32 0 -61.333 7.83301 -88 23.5s-47.667 36.334 -63 62.001s-23.166 54.167 -23.499 85.5s9.83398 62.333 30.501 93l97 -56c-14.667 -30 -16 -55.333 -4 -76s29.667 -31.334 53 -32.001c20.667 0 36 6.5 46 19.5
s15 29.167 15 48.5c0 15.333 -6.33301 30 -19 44s-28.5 28 -47.5 42l-61 44.5c-21.667 15.667 -42 32.834 -61 51.501s-34.667 39.5 -47 62.5s-18.5 48.833 -18.5 77.5c0 47.333 10 86.166 30 116.499s44.667 52.833 74 67.5c0.666992 31.333 6.33398 58.666 17.001 81.999
s24.5 42.5 41.5 57.5s36 26.333 57 34s42.5 11.834 64.5 12.501c19.333 0.666992 37.833 -1 55.5 -5s31.834 -11 42.501 -21l-1 50h103zM377.994 177.004c0 18 -8 34.666 -24 49.999s-35.333 31.166 -58 47.499l-71 53c-24.667 19 -46 40.5 -64 64.5
c-11.333 -14.667 -17 -32.667 -17 -54c0 -25.333 7.33301 -47.166 22 -65.499s32.5 -35.5 53.5 -51.5s43.333 -31.833 67 -47.5s44.5 -34.167 62.5 -55.5c10 6.66699 17.333 15.334 22 26.001s7 21.667 7 33z" />
    <glyph glyph-name="dieresis" unicode="&#xa8;" horiz-adv-x="334" 
d="M313 740c1.33301 -14 -3.16797 -26.502 -13.501 -37.502s-24.166 -16.833 -41.499 -17.5c-14.667 -0.666992 -27.667 4.33301 -39 15s-17.333 23.334 -18 38.001s4.33301 27.667 15 39s24.667 17.666 42 18.999c17.333 0.666992 30.5 -4.66602 39.5 -15.999
s14.167 -24.666 15.5 -39.999zM132.999 731.998c1.33301 -13.333 -3.16699 -25.666 -13.5 -36.999s-24.166 -17.333 -41.499 -18c-15.333 -0.666992 -28.666 4.33301 -39.999 15s-17.333 23.334 -18 38.001c-0.666992 15.333 4.33301 28.666 15 39.999s24.667 17.333 42 18
c17.333 1.33301 30.666 -3.83398 39.999 -15.501s14.666 -25.167 15.999 -40.5z" />
    <glyph glyph-name="copyright" unicode="&#xa9;" horiz-adv-x="324" 
d="M304 582c1.33301 -19.333 -1.16895 -37.334 -7.50195 -54.001s-15.666 -31.334 -27.999 -44.001s-27.166 -22.5 -44.499 -29.5s-36.666 -10.833 -57.999 -11.5c-40 -0.666992 -73.333 8.5 -100 27.5s-41.667 46.833 -45 83.5c-2 22.667 0.333008 43.334 7 62.001
s16.5 34.5 29.5 47.5s28.667 23.333 47 31s38.166 12.167 59.499 13.5c40 2 72.833 -8.66699 98.5 -32s39.5 -54.666 41.5 -93.999zM270.998 583.999c-2 30 -12.332 53 -30.999 69s-43.334 23 -74.001 21c-32 -1.33301 -59.333 -12 -82 -32s-32.334 -47.667 -29.001 -83
c3.33301 -30 15 -52.333 35 -67s45.333 -21.667 76 -21c32 0.666992 57.833 12.167 77.5 34.5s28.834 48.5 27.501 78.5zM230.999 637.999l-15.999 -39.002c-7.33301 3.33301 -14.666 6.33301 -21.999 9s-15.333 3.66699 -24 3c-13.333 -1.33301 -24.333 -6 -33 -14
s-12.334 -20 -11.001 -36c1.33301 -15.333 7.5 -24.833 18.5 -28.5s20.167 -5.5 27.5 -5.5c16 0 29.333 4 40 12l16 -23c-6.66699 -6 -14.5 -10.833 -23.5 -14.5s-20.5 -5.5 -34.5 -5.5c-18.667 -1.33301 -36.667 3.33398 -54 14.001s-27 27.334 -29 50.001
c-2.66699 29.333 4.16602 49.833 20.499 61.5s32.833 18.5 49.5 20.5c8.66699 1.33301 17 1.5 25 0.5s13.667 -2.16699 17 -3.5l4 9z" />
    <glyph glyph-name="ordfeminine" unicode="&#xaa;" 
d="M353 401c0 -20.667 -3.83301 -40 -11.5 -58s-18.334 -33.667 -32.001 -47s-29.5 -23.833 -47.5 -31.5s-37.333 -11.5 -58 -11.5s-40 3.83301 -58 11.5s-33.667 18.167 -47 31.5s-23.833 29 -31.5 47s-11.5 37.333 -11.5 58s3.83301 40 11.5 58s18.167 33.667 31.5 47
s29 23.833 47 31.5s37.333 11.5 58 11.5s40 -3.83301 58 -11.5s33.833 -18.167 47.5 -31.5s24.334 -29 32.001 -47s11.5 -37.333 11.5 -58zM308 401c0 28.667 -10 53.167 -30 73.5s-44.667 30.5 -74 30.5c-28.667 0 -53.167 -10.167 -73.5 -30.5s-30.5 -44.833 -30.5 -73.5
s10.167 -53.167 30.5 -73.5s44.833 -30.5 73.5 -30.5c29.333 0 54 10.167 74 30.5s30 44.833 30 73.5z" />
    <glyph glyph-name="guillemotleft" unicode="&#xab;" 
d="M353 401c0 -20.667 -3.83301 -40 -11.5 -58s-18.334 -33.667 -32.001 -47s-29.5 -23.833 -47.5 -31.5s-37.333 -11.5 -58 -11.5s-40 3.83301 -58 11.5s-33.667 18.167 -47 31.5s-23.833 29 -31.5 47s-11.5 37.333 -11.5 58s3.83301 40 11.5 58s18.167 33.667 31.5 47
s29 23.833 47 31.5s37.333 11.5 58 11.5s40 -3.83301 58 -11.5s33.833 -18.167 47.5 -31.5s24.334 -29 32.001 -47s11.5 -37.333 11.5 -58zM308 401c0 28.667 -10 53.167 -30 73.5s-44.667 30.5 -74 30.5c-28.667 0 -53.167 -10.167 -73.5 -30.5s-30.5 -44.833 -30.5 -73.5
s10.167 -53.167 30.5 -73.5s44.833 -30.5 73.5 -30.5c29.333 0 54 10.167 74 30.5s30 44.833 30 73.5z" />
    <glyph glyph-name="logicalnot" unicode="&#xac;" 
d="M353 401c0 -20.667 -3.83301 -40 -11.5 -58s-18.334 -33.667 -32.001 -47s-29.5 -23.833 -47.5 -31.5s-37.333 -11.5 -58 -11.5s-40 3.83301 -58 11.5s-33.667 18.167 -47 31.5s-23.833 29 -31.5 47s-11.5 37.333 -11.5 58s3.83301 40 11.5 58s18.167 33.667 31.5 47
s29 23.833 47 31.5s37.333 11.5 58 11.5s40 -3.83301 58 -11.5s33.833 -18.167 47.5 -31.5s24.334 -29 32.001 -47s11.5 -37.333 11.5 -58zM308 401c0 28.667 -10 53.167 -30 73.5s-44.667 30.5 -74 30.5c-28.667 0 -53.167 -10.167 -73.5 -30.5s-30.5 -44.833 -30.5 -73.5
s10.167 -53.167 30.5 -73.5s44.833 -30.5 73.5 -30.5c29.333 0 54 10.167 74 30.5s30 44.833 30 73.5z" />
    <glyph glyph-name="registered" unicode="&#xae;" horiz-adv-x="324" 
d="M303 553c-3.33301 -36.667 -18.334 -64.665 -45.001 -83.998s-60 -28.333 -100 -27c-41.333 1.33301 -75.166 15 -101.499 41s-38.5 58.667 -36.5 98c2.66699 39.333 17.167 70.166 43.5 92.499s58.166 32.833 95.499 31.5c20.667 -0.666992 40.334 -4.66699 59.001 -12
s34.667 -17.5 48 -30.5s23.5 -28.833 30.5 -47.5s9.16699 -39.334 6.5 -62.001zM268.999 558.002c3.33301 34.667 -6.16797 62.167 -28.501 82.5s-49.5 31.166 -81.5 32.499c-28 0.666992 -52.167 -6.66602 -72.5 -21.999s-31.5 -38 -33.5 -68
c-1.33301 -30 7.83398 -56 27.501 -78s45.5 -33.667 77.5 -35c30.667 -1.33301 56 5.5 76 20.5s31.667 37.5 35 67.5zM230.998 522.002l-1 -22l-38 -1l-30 55c-4 -0.666992 -8.33301 -0.666992 -13 0l1 -33h14v-21l-58 1l-1 20h15v103h-14l-1 23h57c22 0 38 -4.5 48 -13.5
s15.333 -19.167 16 -30.5c0.666992 -8 -1.5 -16.833 -6.5 -26.5s-14.833 -16.167 -29.5 -19.5l22 -35h19zM196.998 598.002c-0.666992 9.33301 -4.66797 16 -12.001 20s-19.333 5.66699 -36 5l1 -48c12.667 -0.666992 23.834 0.5 33.501 3.5s14.167 9.5 13.5 19.5z" />
    <glyph glyph-name="degree" unicode="&#xb0;" horiz-adv-x="179" 
d="M158 620c0 -19.333 -5.83301 -35.832 -17.5 -49.499s-27.5 -21.167 -47.5 -22.5c-19.333 -0.666992 -35.833 4.66602 -49.5 15.999s-21.5 27 -23.5 47c-2 22.667 4 41.167 18 55.5s31 22.166 51 23.499c19.333 0.666992 35.833 -6.16602 49.5 -20.499
s20.167 -30.833 19.5 -49.5zM126 619.001c0 10 -3.66797 19.333 -11.001 28s-16 13 -26 13c-10 -0.666992 -18.667 -5.66699 -26 -15s-10.666 -20 -9.99902 -32c0.666992 -11.333 4.66699 -19.833 12 -25.5s16 -8.5 26 -8.5s18.333 4.16699 25 12.5s10 17.5 10 27.5z" />
    <glyph glyph-name="plusminus" unicode="&#xb1;" 
d="M353 401c0 -20.667 -3.83301 -40 -11.5 -58s-18.334 -33.667 -32.001 -47s-29.5 -23.833 -47.5 -31.5s-37.333 -11.5 -58 -11.5s-40 3.83301 -58 11.5s-33.667 18.167 -47 31.5s-23.833 29 -31.5 47s-11.5 37.333 -11.5 58s3.83301 40 11.5 58s18.167 33.667 31.5 47
s29 23.833 47 31.5s37.333 11.5 58 11.5s40 -3.83301 58 -11.5s33.833 -18.167 47.5 -31.5s24.334 -29 32.001 -47s11.5 -37.333 11.5 -58zM308 401c0 28.667 -10 53.167 -30 73.5s-44.667 30.5 -74 30.5c-28.667 0 -53.167 -10.167 -73.5 -30.5s-30.5 -44.833 -30.5 -73.5
s10.167 -53.167 30.5 -73.5s44.833 -30.5 73.5 -30.5c29.333 0 54 10.167 74 30.5s30 44.833 30 73.5z" />
    <glyph glyph-name="twosuperior" unicode="&#xb2;" 
d="M353 401c0 -20.667 -3.83301 -40 -11.5 -58s-18.334 -33.667 -32.001 -47s-29.5 -23.833 -47.5 -31.5s-37.333 -11.5 -58 -11.5s-40 3.83301 -58 11.5s-33.667 18.167 -47 31.5s-23.833 29 -31.5 47s-11.5 37.333 -11.5 58s3.83301 40 11.5 58s18.167 33.667 31.5 47
s29 23.833 47 31.5s37.333 11.5 58 11.5s40 -3.83301 58 -11.5s33.833 -18.167 47.5 -31.5s24.334 -29 32.001 -47s11.5 -37.333 11.5 -58zM308 401c0 28.667 -10 53.167 -30 73.5s-44.667 30.5 -74 30.5c-28.667 0 -53.167 -10.167 -73.5 -30.5s-30.5 -44.833 -30.5 -73.5
s10.167 -53.167 30.5 -73.5s44.833 -30.5 73.5 -30.5c29.333 0 54 10.167 74 30.5s30 44.833 30 73.5z" />
    <glyph glyph-name="threesuperior" unicode="&#xb3;" 
d="M353 401c0 -20.667 -3.83301 -40 -11.5 -58s-18.334 -33.667 -32.001 -47s-29.5 -23.833 -47.5 -31.5s-37.333 -11.5 -58 -11.5s-40 3.83301 -58 11.5s-33.667 18.167 -47 31.5s-23.833 29 -31.5 47s-11.5 37.333 -11.5 58s3.83301 40 11.5 58s18.167 33.667 31.5 47
s29 23.833 47 31.5s37.333 11.5 58 11.5s40 -3.83301 58 -11.5s33.833 -18.167 47.5 -31.5s24.334 -29 32.001 -47s11.5 -37.333 11.5 -58zM308 401c0 28.667 -10 53.167 -30 73.5s-44.667 30.5 -74 30.5c-28.667 0 -53.167 -10.167 -73.5 -30.5s-30.5 -44.833 -30.5 -73.5
s10.167 -53.167 30.5 -73.5s44.833 -30.5 73.5 -30.5c29.333 0 54 10.167 74 30.5s30 44.833 30 73.5z" />
    <glyph glyph-name="acute" unicode="&#xb4;" horiz-adv-x="272" 
d="M252 838l-150 -194l-82 -5l113 190z" />
    <glyph glyph-name="mu" unicode="&#xb5;" 
d="M353 401c0 -20.667 -3.83301 -40 -11.5 -58s-18.334 -33.667 -32.001 -47s-29.5 -23.833 -47.5 -31.5s-37.333 -11.5 -58 -11.5s-40 3.83301 -58 11.5s-33.667 18.167 -47 31.5s-23.833 29 -31.5 47s-11.5 37.333 -11.5 58s3.83301 40 11.5 58s18.167 33.667 31.5 47
s29 23.833 47 31.5s37.333 11.5 58 11.5s40 -3.83301 58 -11.5s33.833 -18.167 47.5 -31.5s24.334 -29 32.001 -47s11.5 -37.333 11.5 -58zM308 401c0 28.667 -10 53.167 -30 73.5s-44.667 30.5 -74 30.5c-28.667 0 -53.167 -10.167 -73.5 -30.5s-30.5 -44.833 -30.5 -73.5
s10.167 -53.167 30.5 -73.5s44.833 -30.5 73.5 -30.5c29.333 0 54 10.167 74 30.5s30 44.833 30 73.5z" />
    <glyph glyph-name="paragraph" unicode="&#xb6;" horiz-adv-x="610" 
d="M590 675l-2.00195 -98.999l-46 2l-3 -469l48 -2v-97l-147 -4l-8 578l-30 1l-10 -594l-176 -2l-1 99l64 3l3 143c-40.667 0.666992 -77.167 7.16699 -109.5 19.5s-59.666 28.666 -81.999 48.999s-39.666 44.333 -51.999 72s-18.5 57.167 -18.5 88.5
c0 22.667 4.33301 46.167 13 70.5s21.834 47 39.501 68s39.5 39 65.5 54s56.333 24.167 91 27.5c30 2.66699 57.167 4.5 81.5 5.5s49.666 1 75.999 0s55.5 -2.66699 87.5 -5z" />
    <glyph glyph-name="summation" unicode="&#xb7;" 
d="M353 401c0 -20.667 -3.83301 -40 -11.5 -58s-18.334 -33.667 -32.001 -47s-29.5 -23.833 -47.5 -31.5s-37.333 -11.5 -58 -11.5s-40 3.83301 -58 11.5s-33.667 18.167 -47 31.5s-23.833 29 -31.5 47s-11.5 37.333 -11.5 58s3.83301 40 11.5 58s18.167 33.667 31.5 47
s29 23.833 47 31.5s37.333 11.5 58 11.5s40 -3.83301 58 -11.5s33.833 -18.167 47.5 -31.5s24.334 -29 32.001 -47s11.5 -37.333 11.5 -58zM308 401c0 28.667 -10 53.167 -30 73.5s-44.667 30.5 -74 30.5c-28.667 0 -53.167 -10.167 -73.5 -30.5s-30.5 -44.833 -30.5 -73.5
s10.167 -53.167 30.5 -73.5s44.833 -30.5 73.5 -30.5c29.333 0 54 10.167 74 30.5s30 44.833 30 73.5z" />
    <glyph glyph-name="cedilla" unicode="&#xb8;" 
d="M353 401c0 -20.667 -3.83301 -40 -11.5 -58s-18.334 -33.667 -32.001 -47s-29.5 -23.833 -47.5 -31.5s-37.333 -11.5 -58 -11.5s-40 3.83301 -58 11.5s-33.667 18.167 -47 31.5s-23.833 29 -31.5 47s-11.5 37.333 -11.5 58s3.83301 40 11.5 58s18.167 33.667 31.5 47
s29 23.833 47 31.5s37.333 11.5 58 11.5s40 -3.83301 58 -11.5s33.833 -18.167 47.5 -31.5s24.334 -29 32.001 -47s11.5 -37.333 11.5 -58zM308 401c0 28.667 -10 53.167 -30 73.5s-44.667 30.5 -74 30.5c-28.667 0 -53.167 -10.167 -73.5 -30.5s-30.5 -44.833 -30.5 -73.5
s10.167 -53.167 30.5 -73.5s44.833 -30.5 73.5 -30.5c29.333 0 54 10.167 74 30.5s30 44.833 30 73.5z" />
    <glyph glyph-name="onesuperior" unicode="&#xb9;" 
d="M353 401c0 -20.667 -3.83301 -40 -11.5 -58s-18.334 -33.667 -32.001 -47s-29.5 -23.833 -47.5 -31.5s-37.333 -11.5 -58 -11.5s-40 3.83301 -58 11.5s-33.667 18.167 -47 31.5s-23.833 29 -31.5 47s-11.5 37.333 -11.5 58s3.83301 40 11.5 58s18.167 33.667 31.5 47
s29 23.833 47 31.5s37.333 11.5 58 11.5s40 -3.83301 58 -11.5s33.833 -18.167 47.5 -31.5s24.334 -29 32.001 -47s11.5 -37.333 11.5 -58zM308 401c0 28.667 -10 53.167 -30 73.5s-44.667 30.5 -74 30.5c-28.667 0 -53.167 -10.167 -73.5 -30.5s-30.5 -44.833 -30.5 -73.5
s10.167 -53.167 30.5 -73.5s44.833 -30.5 73.5 -30.5c29.333 0 54 10.167 74 30.5s30 44.833 30 73.5z" />
    <glyph glyph-name="ordmasculine" unicode="&#xba;" 
d="M353 401c0 -20.667 -3.83301 -40 -11.5 -58s-18.334 -33.667 -32.001 -47s-29.5 -23.833 -47.5 -31.5s-37.333 -11.5 -58 -11.5s-40 3.83301 -58 11.5s-33.667 18.167 -47 31.5s-23.833 29 -31.5 47s-11.5 37.333 -11.5 58s3.83301 40 11.5 58s18.167 33.667 31.5 47
s29 23.833 47 31.5s37.333 11.5 58 11.5s40 -3.83301 58 -11.5s33.833 -18.167 47.5 -31.5s24.334 -29 32.001 -47s11.5 -37.333 11.5 -58zM308 401c0 28.667 -10 53.167 -30 73.5s-44.667 30.5 -74 30.5c-28.667 0 -53.167 -10.167 -73.5 -30.5s-30.5 -44.833 -30.5 -73.5
s10.167 -53.167 30.5 -73.5s44.833 -30.5 73.5 -30.5c29.333 0 54 10.167 74 30.5s30 44.833 30 73.5z" />
    <glyph glyph-name="guillemotright" unicode="&#xbb;" 
d="M353 401c0 -20.667 -3.83301 -40 -11.5 -58s-18.334 -33.667 -32.001 -47s-29.5 -23.833 -47.5 -31.5s-37.333 -11.5 -58 -11.5s-40 3.83301 -58 11.5s-33.667 18.167 -47 31.5s-23.833 29 -31.5 47s-11.5 37.333 -11.5 58s3.83301 40 11.5 58s18.167 33.667 31.5 47
s29 23.833 47 31.5s37.333 11.5 58 11.5s40 -3.83301 58 -11.5s33.833 -18.167 47.5 -31.5s24.334 -29 32.001 -47s11.5 -37.333 11.5 -58zM308 401c0 28.667 -10 53.167 -30 73.5s-44.667 30.5 -74 30.5c-28.667 0 -53.167 -10.167 -73.5 -30.5s-30.5 -44.833 -30.5 -73.5
s10.167 -53.167 30.5 -73.5s44.833 -30.5 73.5 -30.5c29.333 0 54 10.167 74 30.5s30 44.833 30 73.5z" />
    <glyph glyph-name="onequarter" unicode="&#xbc;" 
d="M353 401c0 -20.667 -3.83301 -40 -11.5 -58s-18.334 -33.667 -32.001 -47s-29.5 -23.833 -47.5 -31.5s-37.333 -11.5 -58 -11.5s-40 3.83301 -58 11.5s-33.667 18.167 -47 31.5s-23.833 29 -31.5 47s-11.5 37.333 -11.5 58s3.83301 40 11.5 58s18.167 33.667 31.5 47
s29 23.833 47 31.5s37.333 11.5 58 11.5s40 -3.83301 58 -11.5s33.833 -18.167 47.5 -31.5s24.334 -29 32.001 -47s11.5 -37.333 11.5 -58zM308 401c0 28.667 -10 53.167 -30 73.5s-44.667 30.5 -74 30.5c-28.667 0 -53.167 -10.167 -73.5 -30.5s-30.5 -44.833 -30.5 -73.5
s10.167 -53.167 30.5 -73.5s44.833 -30.5 73.5 -30.5c29.333 0 54 10.167 74 30.5s30 44.833 30 73.5z" />
    <glyph glyph-name="onehalf" unicode="&#xbd;" 
d="M353 401c0 -20.667 -3.83301 -40 -11.5 -58s-18.334 -33.667 -32.001 -47s-29.5 -23.833 -47.5 -31.5s-37.333 -11.5 -58 -11.5s-40 3.83301 -58 11.5s-33.667 18.167 -47 31.5s-23.833 29 -31.5 47s-11.5 37.333 -11.5 58s3.83301 40 11.5 58s18.167 33.667 31.5 47
s29 23.833 47 31.5s37.333 11.5 58 11.5s40 -3.83301 58 -11.5s33.833 -18.167 47.5 -31.5s24.334 -29 32.001 -47s11.5 -37.333 11.5 -58zM308 401c0 28.667 -10 53.167 -30 73.5s-44.667 30.5 -74 30.5c-28.667 0 -53.167 -10.167 -73.5 -30.5s-30.5 -44.833 -30.5 -73.5
s10.167 -53.167 30.5 -73.5s44.833 -30.5 73.5 -30.5c29.333 0 54 10.167 74 30.5s30 44.833 30 73.5z" />
    <glyph glyph-name="threequarters" unicode="&#xbe;" 
d="M353 401c0 -20.667 -3.83301 -40 -11.5 -58s-18.334 -33.667 -32.001 -47s-29.5 -23.833 -47.5 -31.5s-37.333 -11.5 -58 -11.5s-40 3.83301 -58 11.5s-33.667 18.167 -47 31.5s-23.833 29 -31.5 47s-11.5 37.333 -11.5 58s3.83301 40 11.5 58s18.167 33.667 31.5 47
s29 23.833 47 31.5s37.333 11.5 58 11.5s40 -3.83301 58 -11.5s33.833 -18.167 47.5 -31.5s24.334 -29 32.001 -47s11.5 -37.333 11.5 -58zM308 401c0 28.667 -10 53.167 -30 73.5s-44.667 30.5 -74 30.5c-28.667 0 -53.167 -10.167 -73.5 -30.5s-30.5 -44.833 -30.5 -73.5
s10.167 -53.167 30.5 -73.5s44.833 -30.5 73.5 -30.5c29.333 0 54 10.167 74 30.5s30 44.833 30 73.5z" />
    <glyph glyph-name="questiondown" unicode="&#xbf;" horiz-adv-x="512" 
d="M368 703l-2 -94l-119 -1l-2 97zM492 28l-99.9961 -41.001l-26 53c-20.667 -9.33301 -40.5 -15.166 -59.5 -17.499s-38.167 -3.83301 -57.5 -4.5c-36.667 -0.666992 -69.334 5.33301 -98.001 18s-52.834 29.667 -72.501 51s-34.5 46 -44.5 74s-14.667 57.333 -14 88
c0.666992 28 6.16699 54.667 16.5 80s25 48.166 44 68.499s41.667 37.5 68 51.5s56.166 23.333 89.499 28l2 75l113 -2l3 -162c-74 -2.66699 -127.333 -17.667 -160 -45s-48.334 -59.666 -47.001 -96.999c1.33301 -32.667 12.5 -59 33.5 -79s47.833 -30.667 80.5 -32
c12.667 -0.666992 26.334 0.333008 41.001 3s29 6.5 43 11.5s27.167 11.167 39.5 18.5s22.166 15.333 29.499 24z" />
    <glyph glyph-name="AE" unicode="&#xc6;" horiz-adv-x="885" 
d="M865 -9l-485 -5l-2 94l62 -5l-6 175l-168 -7l-91 -261l-151 -2l-4 101l58 2l173 472l-134 -4l1 120l743 12l-1 -172l-83 -1l-3 70l-231 4l5 -238l89 -2v126l92 2l-3 -277l-90 -1l-1 64l-85 -4l3 -163l217 1l1 91l91 4zM431 347l-7 208h-50l-72 -206z" />
    <glyph glyph-name="Ccedilla" unicode="&#xc7;" horiz-adv-x="600" 
d="M580 694l-69.0068 -175.001c-19.333 16.667 -42.333 30.334 -69 41.001s-57.667 14.334 -93 11.001c-26.667 -3.33301 -52.167 -12.166 -76.5 -26.499s-45.5 -33.166 -63.5 -56.499s-31.667 -50.833 -41 -82.5s-12.666 -66.5 -9.99902 -104.5s11.334 -69.333 26.001 -94
s31.667 -44.334 51 -59.001s39.5 -25.167 60.5 -31.5s39.167 -9.5 54.5 -9.5c30.667 0 61 5.16699 91 15.5s57 26.833 81 49.5l50 -85c-23.333 -27.333 -51.833 -48.333 -85.5 -63s-75.167 -23.667 -124.5 -27l-1 -16c44 -2 65 -25.667 63 -71
c-0.666992 -14 -4.16699 -25.5 -10.5 -34.5s-13.833 -16.333 -22.5 -22s-17.334 -9.5 -26.001 -11.5s-16 -3 -22 -3c-20 0 -42.333 5.33301 -67 16l22 46c18.667 -8.66699 34.334 -11.334 47.001 -8.00098s19.334 10.333 20.001 21
c0.666992 6 -1.16602 10.833 -5.49902 14.5s-10 6.16699 -17 7.5s-14.333 1.5 -22 0.5s-14.167 -3.16699 -19.5 -6.5l-1 67c-33.333 2.66699 -65.666 10.167 -96.999 22.5s-59.833 30.5 -85.5 54.5s-47 54 -64 90s-27.5 79 -31.5 129
c-5.33301 66 1.83398 123.5 21.501 172.5s45.667 89.833 78 122.5s68 57.334 107 74.001s74.833 26 107.5 28c24.667 1.33301 47.834 0.666016 69.501 -2.00098s39.167 -5.33398 52.5 -8.00098l16 47z" />
    <glyph glyph-name="Eth" unicode="&#xd0;" 
d="M353 401c0 -20.667 -3.83301 -40 -11.5 -58s-18.334 -33.667 -32.001 -47s-29.5 -23.833 -47.5 -31.5s-37.333 -11.5 -58 -11.5s-40 3.83301 -58 11.5s-33.667 18.167 -47 31.5s-23.833 29 -31.5 47s-11.5 37.333 -11.5 58s3.83301 40 11.5 58s18.167 33.667 31.5 47
s29 23.833 47 31.5s37.333 11.5 58 11.5s40 -3.83301 58 -11.5s33.833 -18.167 47.5 -31.5s24.334 -29 32.001 -47s11.5 -37.333 11.5 -58zM308 401c0 28.667 -10 53.167 -30 73.5s-44.667 30.5 -74 30.5c-28.667 0 -53.167 -10.167 -73.5 -30.5s-30.5 -44.833 -30.5 -73.5
s10.167 -53.167 30.5 -73.5s44.833 -30.5 73.5 -30.5c29.333 0 54 10.167 74 30.5s30 44.833 30 73.5z" />
    <glyph glyph-name="multiply" unicode="&#xd7;" 
d="M353 401c0 -20.667 -3.83301 -40 -11.5 -58s-18.334 -33.667 -32.001 -47s-29.5 -23.833 -47.5 -31.5s-37.333 -11.5 -58 -11.5s-40 3.83301 -58 11.5s-33.667 18.167 -47 31.5s-23.833 29 -31.5 47s-11.5 37.333 -11.5 58s3.83301 40 11.5 58s18.167 33.667 31.5 47
s29 23.833 47 31.5s37.333 11.5 58 11.5s40 -3.83301 58 -11.5s33.833 -18.167 47.5 -31.5s24.334 -29 32.001 -47s11.5 -37.333 11.5 -58zM308 401c0 28.667 -10 53.167 -30 73.5s-44.667 30.5 -74 30.5c-28.667 0 -53.167 -10.167 -73.5 -30.5s-30.5 -44.833 -30.5 -73.5
s10.167 -53.167 30.5 -73.5s44.833 -30.5 73.5 -30.5c29.333 0 54 10.167 74 30.5s30 44.833 30 73.5z" />
    <glyph glyph-name="Oslash" unicode="&#xd8;" horiz-adv-x="679" 
d="M658 379c4 -52 -0.833984 -99.666 -14.501 -142.999s-34 -80.833 -61 -112.5s-59.333 -57 -97 -76s-78.5 -30.167 -122.5 -33.5c-26.667 -2 -52.167 -0.833008 -76.5 3.5s-47.5 10.833 -69.5 19.5l-51 -72l-80 55l47 72c-31.333 28.667 -56.666 63.167 -75.999 103.5
s-31.333 85.166 -36 134.499c-4 48 0.666992 93.667 14 137s33.333 81.666 60 114.999s58.5 60.333 95.5 81s77.5 32.334 121.5 35.001c33.333 2.66699 65.333 0 96 -8s59.667 -20.333 87 -37l45 68l118 -58l-69 -97c19.333 -26 35 -54.833 47 -86.5
s19.333 -65.167 22 -100.5zM527.999 367.001c-3.33301 30 -10 57.667 -20 83l-222 -314c17.333 -6 36.333 -8.33301 57 -7c26 2 50.667 9 74 21s43.833 28.5 61.5 49.5s31 45.667 40 74s12.167 59.5 9.5 93.5zM428.999 550.001c-16.667 10.667 -34.499 18.667 -53.499 24
s-39.5 7.66602 -61.5 6.99902c-25.333 -1.33301 -49 -8.66602 -71 -21.999s-40.833 -30.666 -56.5 -51.999s-27.334 -45.833 -35.001 -73.5s-10.167 -56.834 -7.5 -87.501s9 -58.667 19 -84s22.333 -47.333 37 -66z" />
    <glyph glyph-name="Yacute" unicode="&#xdd;" 
d="M353 401c0 -20.667 -3.83301 -40 -11.5 -58s-18.334 -33.667 -32.001 -47s-29.5 -23.833 -47.5 -31.5s-37.333 -11.5 -58 -11.5s-40 3.83301 -58 11.5s-33.667 18.167 -47 31.5s-23.833 29 -31.5 47s-11.5 37.333 -11.5 58s3.83301 40 11.5 58s18.167 33.667 31.5 47
s29 23.833 47 31.5s37.333 11.5 58 11.5s40 -3.83301 58 -11.5s33.833 -18.167 47.5 -31.5s24.334 -29 32.001 -47s11.5 -37.333 11.5 -58zM308 401c0 28.667 -10 53.167 -30 73.5s-44.667 30.5 -74 30.5c-28.667 0 -53.167 -10.167 -73.5 -30.5s-30.5 -44.833 -30.5 -73.5
s10.167 -53.167 30.5 -73.5s44.833 -30.5 73.5 -30.5c29.333 0 54 10.167 74 30.5s30 44.833 30 73.5z" />
    <glyph glyph-name="Thorn" unicode="&#xde;" 
d="M353 401c0 -20.667 -3.83301 -40 -11.5 -58s-18.334 -33.667 -32.001 -47s-29.5 -23.833 -47.5 -31.5s-37.333 -11.5 -58 -11.5s-40 3.83301 -58 11.5s-33.667 18.167 -47 31.5s-23.833 29 -31.5 47s-11.5 37.333 -11.5 58s3.83301 40 11.5 58s18.167 33.667 31.5 47
s29 23.833 47 31.5s37.333 11.5 58 11.5s40 -3.83301 58 -11.5s33.833 -18.167 47.5 -31.5s24.334 -29 32.001 -47s11.5 -37.333 11.5 -58zM308 401c0 28.667 -10 53.167 -30 73.5s-44.667 30.5 -74 30.5c-28.667 0 -53.167 -10.167 -73.5 -30.5s-30.5 -44.833 -30.5 -73.5
s10.167 -53.167 30.5 -73.5s44.833 -30.5 73.5 -30.5c29.333 0 54 10.167 74 30.5s30 44.833 30 73.5z" />
    <glyph glyph-name="germandbls" unicode="&#xdf;" horiz-adv-x="507" 
d="M486 184c2.66699 -28 -0.336914 -55.668 -9.00391 -83.001s-23.5 -51.666 -44.5 -72.999s-48.167 -38.333 -81.5 -51s-73.333 -18 -120 -16l-15 102c19.333 0 38.166 2 56.499 6s34.333 10.5 48 19.5s24.334 20.5 32.001 34.5s10.834 30.667 9.50098 50
c-1.33301 22.667 -6.33301 40.834 -15 54.501s-19.5 24.167 -32.5 31.5s-27.833 12.333 -44.5 15s-33.667 4 -51 4v97c31.333 0.666992 58.666 9.33398 81.999 26.001s35.333 43 36 79c0.666992 22.667 -4.33301 40.667 -15 54s-24.167 23.166 -40.5 29.499
s-34.166 10.166 -53.499 11.499s-38 1.33301 -56 0l-3 -583l-146 -1l-3 102l41 1l-9 578c45.333 4 83.333 6.16699 114 6.5s60.334 -1.5 89.001 -5.5c68.667 -8.66699 117.334 -26.667 146.001 -54s46.334 -61.666 53.001 -102.999c3.33301 -20 3.5 -39.5 0.5 -58.5
s-8.5 -36.5 -16.5 -52.5s-18 -30 -30 -42s-25.333 -21 -40 -27c70.667 -18.667 110 -69.334 118 -152.001z" />
    <glyph glyph-name="ae" unicode="&#xe6;" horiz-adv-x="712" 
d="M691 175l-293.999 -9.00195c0 -12 3.16699 -23 9.5 -33s14.333 -18.833 24 -26.5s20.334 -13.667 32.001 -18s23.5 -6.83301 35.5 -7.5c17.333 -0.666992 34.833 2 52.5 8s32.167 14.667 43.5 26l57 -73c-20.667 -22.667 -43.834 -38.167 -69.501 -46.5
s-53.167 -12.166 -82.5 -11.499c-24.667 0.666992 -49 5.16699 -73 13.5s-45.667 20.5 -65 36.5c-12.667 -12 -30.834 -23.5 -54.501 -34.5s-53.834 -17.833 -90.501 -20.5c-14 -0.666992 -32 0.5 -54 3.5s-43.5 10 -64.5 21s-39 26.5 -54 46.5s-22.833 46.333 -23.5 79
c-0.666992 47.333 14.5 85.333 45.5 114s70.167 44 117.5 46c22 1.33301 41.5 -0.5 58.5 -5.5s30.5 -11.167 40.5 -18.5c0 20.667 -5.5 38.834 -16.5 54.501s-25.667 26.167 -44 31.5s-39.333 4.83301 -63 -1.5s-48.5 -20.5 -74.5 -42.5l-48 75c12 12 27.333 23.333 46 34
s39.5 18.667 62.5 24s47.333 7 73 5s51.167 -9.66699 76.5 -23c24 -12.667 43 -28 57 -46c20.667 20 44.167 34.833 70.5 44.5s51.5 14.5 75.5 14.5c18 0 38.833 -3.5 62.5 -10.5s45.834 -20 66.501 -39s37.5 -45.5 50.5 -79.5s17.833 -77.667 14.5 -131zM586.001 261.998
c-2.66699 25.333 -13.334 44.6689 -32.001 58.002s-38 19.666 -58 18.999c-20.667 -0.666992 -40.667 -8.33398 -60 -23.001s-30.666 -35 -33.999 -61zM302.001 115.001c-6.66699 17.333 -11.6631 37.667 -14.9961 61c-8.66699 5.33301 -19.834 10.5 -33.501 15.5
s-27.5 7.83301 -41.5 8.5c-26.667 0 -47.334 -6.33301 -62.001 -19s-20.334 -29 -17.001 -49c2 -12 6 -22 12 -30s13.167 -14.167 21.5 -18.5s17 -7.33301 26 -9s17.167 -2.16699 24.5 -1.5c21.333 2 38.666 6.5 51.999 13.5s24.333 16.5 33 28.5z" />
    <glyph glyph-name="ccedilla" unicode="&#xe7;" horiz-adv-x="503" 
d="M483 428l-89 -152.001c-16 22.667 -37.5 40 -64.5 52s-53.5 17.667 -79.5 17c-32.667 -1.33301 -60.167 -12.5 -82.5 -33.5s-33.166 -49.833 -32.499 -86.5c0 -37.333 12.167 -67.166 36.5 -89.499s51.166 -34.166 80.499 -35.499
c22.667 -1.33301 47.334 4.16699 74.001 16.5s47.334 28.166 62.001 47.499l59 -67c-25.333 -28.667 -52.666 -50.834 -81.999 -66.501s-59.333 -24.5 -90 -26.5l-1 -15c32.667 -1.33301 48 -18.666 46 -51.999c-1.33301 -20.667 -9.33301 -34.5 -24 -41.5
s-26.334 -10.5 -35.001 -10.5c-16 0 -32.333 4 -49 12l15 33c14 -6.66699 25.667 -8.66699 35 -6s14.333 8 15 16s-5 13.333 -17 16s-22 1.33398 -30 -3.99902l-1 51c-28.667 2 -55.667 9.5 -81 22.5s-47.333 29.5 -66 49.5s-33.5 42.5 -44.5 67.5
s-16.833 50.833 -17.5 77.5c-0.666992 31.333 4.66602 60.666 15.999 87.999s26.833 51.166 46.5 71.499s43 36.333 70 48s56.167 17.834 87.5 18.501c19.333 0 39.166 -1.16699 59.499 -3.5s39.5 -8.83301 57.5 -19.5l30 54z" />
    <glyph glyph-name="eth" unicode="&#xf0;" 
d="M353 401c0 -20.667 -3.83301 -40 -11.5 -58s-18.334 -33.667 -32.001 -47s-29.5 -23.833 -47.5 -31.5s-37.333 -11.5 -58 -11.5s-40 3.83301 -58 11.5s-33.667 18.167 -47 31.5s-23.833 29 -31.5 47s-11.5 37.333 -11.5 58s3.83301 40 11.5 58s18.167 33.667 31.5 47
s29 23.833 47 31.5s37.333 11.5 58 11.5s40 -3.83301 58 -11.5s33.833 -18.167 47.5 -31.5s24.334 -29 32.001 -47s11.5 -37.333 11.5 -58zM308 401c0 28.667 -10 53.167 -30 73.5s-44.667 30.5 -74 30.5c-28.667 0 -53.167 -10.167 -73.5 -30.5s-30.5 -44.833 -30.5 -73.5
s10.167 -53.167 30.5 -73.5s44.833 -30.5 73.5 -30.5c29.333 0 54 10.167 74 30.5s30 44.833 30 73.5z" />
    <glyph glyph-name="divide" unicode="&#xf7;" 
d="M353 401c0 -20.667 -3.83301 -40 -11.5 -58s-18.334 -33.667 -32.001 -47s-29.5 -23.833 -47.5 -31.5s-37.333 -11.5 -58 -11.5s-40 3.83301 -58 11.5s-33.667 18.167 -47 31.5s-23.833 29 -31.5 47s-11.5 37.333 -11.5 58s3.83301 40 11.5 58s18.167 33.667 31.5 47
s29 23.833 47 31.5s37.333 11.5 58 11.5s40 -3.83301 58 -11.5s33.833 -18.167 47.5 -31.5s24.334 -29 32.001 -47s11.5 -37.333 11.5 -58zM308 401c0 28.667 -10 53.167 -30 73.5s-44.667 30.5 -74 30.5c-28.667 0 -53.167 -10.167 -73.5 -30.5s-30.5 -44.833 -30.5 -73.5
s10.167 -53.167 30.5 -73.5s44.833 -30.5 73.5 -30.5c29.333 0 54 10.167 74 30.5s30 44.833 30 73.5z" />
    <glyph glyph-name="oslash" unicode="&#xf8;" horiz-adv-x="484" 
d="M464 230c-0.666992 -31.333 -5.99902 -60.832 -15.999 -88.499s-24 -51.667 -42 -72s-39.667 -36.833 -65 -49.5s-54 -19.667 -86 -21c-35.333 -2 -68.666 3.33301 -99.999 16l-33 -45l-70 42l33 48c-36.667 36.667 -58 82.667 -64 138
c-3.33301 36.667 0.166992 70.167 10.5 100.5s25.666 56.666 45.999 78.999s44.666 40 72.999 53s58.833 20.167 91.5 21.5c31.333 0.666992 61.333 -5 90 -17l36 55l93 -53l-47 -66c33.333 -40.667 50 -87.667 50 -141zM361.001 225.001c0 18 -4.33105 36.667 -12.998 56
l-132 -181c5.33301 -1.33301 10.666 -2.33301 15.999 -3s10.666 -1 15.999 -1c16 0 30.833 3.66699 44.5 11s25.5 17 35.5 29s18 25.833 24 41.5s9 31.5 9 47.5zM275.003 349.001c-11.333 4 -22.666 5.99805 -33.999 5.99805c-16 -0.666992 -31.167 -5.16699 -45.5 -13.5
s-27 -19.333 -38 -33s-19.333 -29.167 -25 -46.5s-7.83398 -35.666 -6.50098 -54.999c0.666992 -11.333 2.5 -21.666 5.5 -30.999s7.16699 -18 12.5 -26z" />
    <glyph glyph-name="yacute" unicode="&#xfd;" 
d="M353 401c0 -20.667 -3.83301 -40 -11.5 -58s-18.334 -33.667 -32.001 -47s-29.5 -23.833 -47.5 -31.5s-37.333 -11.5 -58 -11.5s-40 3.83301 -58 11.5s-33.667 18.167 -47 31.5s-23.833 29 -31.5 47s-11.5 37.333 -11.5 58s3.83301 40 11.5 58s18.167 33.667 31.5 47
s29 23.833 47 31.5s37.333 11.5 58 11.5s40 -3.83301 58 -11.5s33.833 -18.167 47.5 -31.5s24.334 -29 32.001 -47s11.5 -37.333 11.5 -58zM308 401c0 28.667 -10 53.167 -30 73.5s-44.667 30.5 -74 30.5c-28.667 0 -53.167 -10.167 -73.5 -30.5s-30.5 -44.833 -30.5 -73.5
s10.167 -53.167 30.5 -73.5s44.833 -30.5 73.5 -30.5c29.333 0 54 10.167 74 30.5s30 44.833 30 73.5z" />
    <glyph glyph-name="thorn" unicode="&#xfe;" 
d="M353 401c0 -20.667 -3.83301 -40 -11.5 -58s-18.334 -33.667 -32.001 -47s-29.5 -23.833 -47.5 -31.5s-37.333 -11.5 -58 -11.5s-40 3.83301 -58 11.5s-33.667 18.167 -47 31.5s-23.833 29 -31.5 47s-11.5 37.333 -11.5 58s3.83301 40 11.5 58s18.167 33.667 31.5 47
s29 23.833 47 31.5s37.333 11.5 58 11.5s40 -3.83301 58 -11.5s33.833 -18.167 47.5 -31.5s24.334 -29 32.001 -47s11.5 -37.333 11.5 -58zM308 401c0 28.667 -10 53.167 -30 73.5s-44.667 30.5 -74 30.5c-28.667 0 -53.167 -10.167 -73.5 -30.5s-30.5 -44.833 -30.5 -73.5
s10.167 -53.167 30.5 -73.5s44.833 -30.5 73.5 -30.5c29.333 0 54 10.167 74 30.5s30 44.833 30 73.5z" />
    <glyph glyph-name="dotlessi" unicode="&#x131;" horiz-adv-x="287" 
d="M267 1h-229l-3 90l69 3l3 232l-86 4l-1 94l189 5l1 -331l57 -2v-95z" />
    <glyph glyph-name="Lslash" unicode="&#x141;" 
d="M353 401c0 -20.667 -3.83301 -40 -11.5 -58s-18.334 -33.667 -32.001 -47s-29.5 -23.833 -47.5 -31.5s-37.333 -11.5 -58 -11.5s-40 3.83301 -58 11.5s-33.667 18.167 -47 31.5s-23.833 29 -31.5 47s-11.5 37.333 -11.5 58s3.83301 40 11.5 58s18.167 33.667 31.5 47
s29 23.833 47 31.5s37.333 11.5 58 11.5s40 -3.83301 58 -11.5s33.833 -18.167 47.5 -31.5s24.334 -29 32.001 -47s11.5 -37.333 11.5 -58zM308 401c0 28.667 -10 53.167 -30 73.5s-44.667 30.5 -74 30.5c-28.667 0 -53.167 -10.167 -73.5 -30.5s-30.5 -44.833 -30.5 -73.5
s10.167 -53.167 30.5 -73.5s44.833 -30.5 73.5 -30.5c29.333 0 54 10.167 74 30.5s30 44.833 30 73.5z" />
    <glyph glyph-name="lslash" unicode="&#x142;" 
d="M353 401c0 -20.667 -3.83301 -40 -11.5 -58s-18.334 -33.667 -32.001 -47s-29.5 -23.833 -47.5 -31.5s-37.333 -11.5 -58 -11.5s-40 3.83301 -58 11.5s-33.667 18.167 -47 31.5s-23.833 29 -31.5 47s-11.5 37.333 -11.5 58s3.83301 40 11.5 58s18.167 33.667 31.5 47
s29 23.833 47 31.5s37.333 11.5 58 11.5s40 -3.83301 58 -11.5s33.833 -18.167 47.5 -31.5s24.334 -29 32.001 -47s11.5 -37.333 11.5 -58zM308 401c0 28.667 -10 53.167 -30 73.5s-44.667 30.5 -74 30.5c-28.667 0 -53.167 -10.167 -73.5 -30.5s-30.5 -44.833 -30.5 -73.5
s10.167 -53.167 30.5 -73.5s44.833 -30.5 73.5 -30.5c29.333 0 54 10.167 74 30.5s30 44.833 30 73.5z" />
    <glyph glyph-name="OE" unicode="&#x152;" horiz-adv-x="1011" 
d="M991 -9l-431.998 -4.99805l-3 90c-25.333 -24.667 -54 -44.334 -86 -59.001s-66.333 -23.334 -103 -26.001c-44 -3.33301 -86 2.5 -126 17.5s-75.667 36.833 -107 65.5s-57 63.167 -77 103.5s-32 84.5 -36 132.5c-4 52 0.833008 99.667 14.5 143s34 80.833 61 112.5
s59.333 57 97 76s78.5 30.167 122.5 33.5c45.333 3.33301 87.166 -1.66699 125.499 -15s72.166 -33 101.499 -59l-2 77l446 5v-172l-84 -1l-3 70l-227 3l-3 -217l102 -1v125l92 2l-3 -277l-90 -1l-1 64l-102 -2v-185l228 1l1 91l91 4zM535.002 343.002
c-3.33301 33.333 -10.666 63.834 -21.999 91.501s-25.833 51 -43.5 70s-37.834 33.5 -60.501 43.5s-47 14 -73 12c-25.333 -2 -49.833 -9 -73.5 -21s-44.334 -28.5 -62.001 -49.5s-31.167 -45.667 -40.5 -74s-12.333 -59.5 -9 -93.5
c2.66699 -30.667 9.83398 -59.334 21.501 -86.001s26.667 -49.667 45 -69s40 -34.333 65 -45s52.5 -15 82.5 -13c26 1.33301 50 8.66602 72 21.999s40.667 30.5 56 51.5s26.833 45.333 34.5 73s10.167 56.834 7.5 87.501z" />
    <glyph glyph-name="oe" unicode="&#x153;" horiz-adv-x="784" 
d="M763 175l-294.995 -9.00195c1.33301 -24 12.666 -44 33.999 -60s44 -24.333 68 -25c17.333 -0.666992 34.833 2 52.5 8s32.167 14.667 43.5 26l56 -73c-20.667 -22.667 -43.834 -38.167 -69.501 -46.5s-52.834 -12.166 -81.501 -11.499
c-32 1.33301 -62.833 8.5 -92.5 21.5s-54.5 32.5 -74.5 58.5c-18 -22 -39.833 -39.667 -65.5 -53s-54.834 -20.666 -87.501 -21.999c-30 -1.33301 -58.333 2.33398 -85 11.001s-50.167 21.5 -70.5 38.5s-37 37.833 -50 62.5s-21.167 52.667 -24.5 84
c-3.33301 35.333 0 68 10 98s25 56 45 78s44 39.333 72 52s58 19.667 90 21c33.333 1.33301 64.5 -5.16699 93.5 -19.5s53.5 -33.5 73.5 -57.5c21.333 27.333 47 47.166 77 59.499s59 18.5 87 18.5c18 0 38.833 -3.5 62.5 -10.5s45.667 -20 66 -39
s37.166 -45.5 50.499 -79.5s18.333 -77.667 15 -131zM658.005 261.998c-2.66699 25.333 -13.332 44.6689 -31.999 58.002s-38 19.666 -58 18.999c-20.667 -0.666992 -40.834 -8.33398 -60.501 -23.001s-31.167 -35 -34.5 -61zM355.007 211.001
c0 32 -10.832 60.8311 -32.499 86.498s-49.5 38.834 -83.5 39.501c-17.333 0 -33.333 -4 -48 -12s-27.334 -18.667 -38.001 -32s-18.5 -28.666 -23.5 -45.999s-6.83301 -35.333 -5.5 -54c2.66699 -34.667 15.667 -61.5 39 -80.5s50.333 -28.5 81 -28.5
c15.333 0 29.833 3.66699 43.5 11s25.5 16.833 35.5 28.5s17.833 25.167 23.5 40.5s8.5 31 8.5 47z" />
    <glyph glyph-name="Scaron" unicode="&#x160;" 
d="M353 401c0 -20.667 -3.83301 -40 -11.5 -58s-18.334 -33.667 -32.001 -47s-29.5 -23.833 -47.5 -31.5s-37.333 -11.5 -58 -11.5s-40 3.83301 -58 11.5s-33.667 18.167 -47 31.5s-23.833 29 -31.5 47s-11.5 37.333 -11.5 58s3.83301 40 11.5 58s18.167 33.667 31.5 47
s29 23.833 47 31.5s37.333 11.5 58 11.5s40 -3.83301 58 -11.5s33.833 -18.167 47.5 -31.5s24.334 -29 32.001 -47s11.5 -37.333 11.5 -58zM308 401c0 28.667 -10 53.167 -30 73.5s-44.667 30.5 -74 30.5c-28.667 0 -53.167 -10.167 -73.5 -30.5s-30.5 -44.833 -30.5 -73.5
s10.167 -53.167 30.5 -73.5s44.833 -30.5 73.5 -30.5c29.333 0 54 10.167 74 30.5s30 44.833 30 73.5z" />
    <glyph glyph-name="scaron" unicode="&#x161;" 
d="M353 401c0 -20.667 -3.83301 -40 -11.5 -58s-18.334 -33.667 -32.001 -47s-29.5 -23.833 -47.5 -31.5s-37.333 -11.5 -58 -11.5s-40 3.83301 -58 11.5s-33.667 18.167 -47 31.5s-23.833 29 -31.5 47s-11.5 37.333 -11.5 58s3.83301 40 11.5 58s18.167 33.667 31.5 47
s29 23.833 47 31.5s37.333 11.5 58 11.5s40 -3.83301 58 -11.5s33.833 -18.167 47.5 -31.5s24.334 -29 32.001 -47s11.5 -37.333 11.5 -58zM308 401c0 28.667 -10 53.167 -30 73.5s-44.667 30.5 -74 30.5c-28.667 0 -53.167 -10.167 -73.5 -30.5s-30.5 -44.833 -30.5 -73.5
s10.167 -53.167 30.5 -73.5s44.833 -30.5 73.5 -30.5c29.333 0 54 10.167 74 30.5s30 44.833 30 73.5z" />
    <glyph glyph-name="Zcaron" unicode="&#x17d;" 
d="M353 401c0 -20.667 -3.83301 -40 -11.5 -58s-18.334 -33.667 -32.001 -47s-29.5 -23.833 -47.5 -31.5s-37.333 -11.5 -58 -11.5s-40 3.83301 -58 11.5s-33.667 18.167 -47 31.5s-23.833 29 -31.5 47s-11.5 37.333 -11.5 58s3.83301 40 11.5 58s18.167 33.667 31.5 47
s29 23.833 47 31.5s37.333 11.5 58 11.5s40 -3.83301 58 -11.5s33.833 -18.167 47.5 -31.5s24.334 -29 32.001 -47s11.5 -37.333 11.5 -58zM308 401c0 28.667 -10 53.167 -30 73.5s-44.667 30.5 -74 30.5c-28.667 0 -53.167 -10.167 -73.5 -30.5s-30.5 -44.833 -30.5 -73.5
s10.167 -53.167 30.5 -73.5s44.833 -30.5 73.5 -30.5c29.333 0 54 10.167 74 30.5s30 44.833 30 73.5z" />
    <glyph glyph-name="zcaron" unicode="&#x17e;" 
d="M353 401c0 -20.667 -3.83301 -40 -11.5 -58s-18.334 -33.667 -32.001 -47s-29.5 -23.833 -47.5 -31.5s-37.333 -11.5 -58 -11.5s-40 3.83301 -58 11.5s-33.667 18.167 -47 31.5s-23.833 29 -31.5 47s-11.5 37.333 -11.5 58s3.83301 40 11.5 58s18.167 33.667 31.5 47
s29 23.833 47 31.5s37.333 11.5 58 11.5s40 -3.83301 58 -11.5s33.833 -18.167 47.5 -31.5s24.334 -29 32.001 -47s11.5 -37.333 11.5 -58zM308 401c0 28.667 -10 53.167 -30 73.5s-44.667 30.5 -74 30.5c-28.667 0 -53.167 -10.167 -73.5 -30.5s-30.5 -44.833 -30.5 -73.5
s10.167 -53.167 30.5 -73.5s44.833 -30.5 73.5 -30.5c29.333 0 54 10.167 74 30.5s30 44.833 30 73.5z" />
    <glyph glyph-name="florin" unicode="&#x192;" 
d="M353 401c0 -20.667 -3.83301 -40 -11.5 -58s-18.334 -33.667 -32.001 -47s-29.5 -23.833 -47.5 -31.5s-37.333 -11.5 -58 -11.5s-40 3.83301 -58 11.5s-33.667 18.167 -47 31.5s-23.833 29 -31.5 47s-11.5 37.333 -11.5 58s3.83301 40 11.5 58s18.167 33.667 31.5 47
s29 23.833 47 31.5s37.333 11.5 58 11.5s40 -3.83301 58 -11.5s33.833 -18.167 47.5 -31.5s24.334 -29 32.001 -47s11.5 -37.333 11.5 -58zM308 401c0 28.667 -10 53.167 -30 73.5s-44.667 30.5 -74 30.5c-28.667 0 -53.167 -10.167 -73.5 -30.5s-30.5 -44.833 -30.5 -73.5
s10.167 -53.167 30.5 -73.5s44.833 -30.5 73.5 -30.5c29.333 0 54 10.167 74 30.5s30 44.833 30 73.5z" />
    <glyph glyph-name="circumflex" unicode="&#x2c6;" 
d="M353 401c0 -20.667 -3.83301 -40 -11.5 -58s-18.334 -33.667 -32.001 -47s-29.5 -23.833 -47.5 -31.5s-37.333 -11.5 -58 -11.5s-40 3.83301 -58 11.5s-33.667 18.167 -47 31.5s-23.833 29 -31.5 47s-11.5 37.333 -11.5 58s3.83301 40 11.5 58s18.167 33.667 31.5 47
s29 23.833 47 31.5s37.333 11.5 58 11.5s40 -3.83301 58 -11.5s33.833 -18.167 47.5 -31.5s24.334 -29 32.001 -47s11.5 -37.333 11.5 -58zM308 401c0 28.667 -10 53.167 -30 73.5s-44.667 30.5 -74 30.5c-28.667 0 -53.167 -10.167 -73.5 -30.5s-30.5 -44.833 -30.5 -73.5
s10.167 -53.167 30.5 -73.5s44.833 -30.5 73.5 -30.5c29.333 0 54 10.167 74 30.5s30 44.833 30 73.5z" />
    <glyph glyph-name="caron" unicode="&#x2c7;" 
d="M353 401c0 -20.667 -3.83301 -40 -11.5 -58s-18.334 -33.667 -32.001 -47s-29.5 -23.833 -47.5 -31.5s-37.333 -11.5 -58 -11.5s-40 3.83301 -58 11.5s-33.667 18.167 -47 31.5s-23.833 29 -31.5 47s-11.5 37.333 -11.5 58s3.83301 40 11.5 58s18.167 33.667 31.5 47
s29 23.833 47 31.5s37.333 11.5 58 11.5s40 -3.83301 58 -11.5s33.833 -18.167 47.5 -31.5s24.334 -29 32.001 -47s11.5 -37.333 11.5 -58zM308 401c0 28.667 -10 53.167 -30 73.5s-44.667 30.5 -74 30.5c-28.667 0 -53.167 -10.167 -73.5 -30.5s-30.5 -44.833 -30.5 -73.5
s10.167 -53.167 30.5 -73.5s44.833 -30.5 73.5 -30.5c29.333 0 54 10.167 74 30.5s30 44.833 30 73.5z" />
    <glyph glyph-name="macron" unicode="&#x2c9;" 
d="M353 401c0 -20.667 -3.83301 -40 -11.5 -58s-18.334 -33.667 -32.001 -47s-29.5 -23.833 -47.5 -31.5s-37.333 -11.5 -58 -11.5s-40 3.83301 -58 11.5s-33.667 18.167 -47 31.5s-23.833 29 -31.5 47s-11.5 37.333 -11.5 58s3.83301 40 11.5 58s18.167 33.667 31.5 47
s29 23.833 47 31.5s37.333 11.5 58 11.5s40 -3.83301 58 -11.5s33.833 -18.167 47.5 -31.5s24.334 -29 32.001 -47s11.5 -37.333 11.5 -58zM308 401c0 28.667 -10 53.167 -30 73.5s-44.667 30.5 -74 30.5c-28.667 0 -53.167 -10.167 -73.5 -30.5s-30.5 -44.833 -30.5 -73.5
s10.167 -53.167 30.5 -73.5s44.833 -30.5 73.5 -30.5c29.333 0 54 10.167 74 30.5s30 44.833 30 73.5z" />
    <glyph glyph-name="breve" unicode="&#x2d8;" 
d="M353 401c0 -20.667 -3.83301 -40 -11.5 -58s-18.334 -33.667 -32.001 -47s-29.5 -23.833 -47.5 -31.5s-37.333 -11.5 -58 -11.5s-40 3.83301 -58 11.5s-33.667 18.167 -47 31.5s-23.833 29 -31.5 47s-11.5 37.333 -11.5 58s3.83301 40 11.5 58s18.167 33.667 31.5 47
s29 23.833 47 31.5s37.333 11.5 58 11.5s40 -3.83301 58 -11.5s33.833 -18.167 47.5 -31.5s24.334 -29 32.001 -47s11.5 -37.333 11.5 -58zM308 401c0 28.667 -10 53.167 -30 73.5s-44.667 30.5 -74 30.5c-28.667 0 -53.167 -10.167 -73.5 -30.5s-30.5 -44.833 -30.5 -73.5
s10.167 -53.167 30.5 -73.5s44.833 -30.5 73.5 -30.5c29.333 0 54 10.167 74 30.5s30 44.833 30 73.5z" />
    <glyph glyph-name="dotaccent" unicode="&#x2d9;" 
d="M353 401c0 -20.667 -3.83301 -40 -11.5 -58s-18.334 -33.667 -32.001 -47s-29.5 -23.833 -47.5 -31.5s-37.333 -11.5 -58 -11.5s-40 3.83301 -58 11.5s-33.667 18.167 -47 31.5s-23.833 29 -31.5 47s-11.5 37.333 -11.5 58s3.83301 40 11.5 58s18.167 33.667 31.5 47
s29 23.833 47 31.5s37.333 11.5 58 11.5s40 -3.83301 58 -11.5s33.833 -18.167 47.5 -31.5s24.334 -29 32.001 -47s11.5 -37.333 11.5 -58zM308 401c0 28.667 -10 53.167 -30 73.5s-44.667 30.5 -74 30.5c-28.667 0 -53.167 -10.167 -73.5 -30.5s-30.5 -44.833 -30.5 -73.5
s10.167 -53.167 30.5 -73.5s44.833 -30.5 73.5 -30.5c29.333 0 54 10.167 74 30.5s30 44.833 30 73.5z" />
    <glyph glyph-name="ring" unicode="&#x2da;" horiz-adv-x="243" 
d="M223 659c-0.666992 -28.667 -9.33203 -53.0039 -25.999 -73.0039s-39.667 -30.667 -69 -32c-28.667 -1.33301 -53 6.33398 -73 23.001s-31.333 39.334 -34 68.001c-3.33301 33.333 5.16699 60.833 25.5 82.5s45.5 32.834 75.5 33.501
c14 0.666992 27.167 -1.66602 39.5 -6.99902s23.166 -12.833 32.499 -22.5s16.5 -20.667 21.5 -33s7.5 -25.5 7.5 -39.5zM174.002 656.996c0 13.333 -5.16797 25.834 -15.501 37.501s-22.166 17.5 -35.499 17.5c-13.333 -0.666992 -25.166 -7.33398 -35.499 -20.001
s-14.833 -27 -13.5 -43c1.33301 -15.333 7 -27 17 -35s21.667 -12 35 -12s24.666 5.66699 33.999 17s14 24 14 38z" />
    <glyph glyph-name="ogonek" unicode="&#x2db;" 
d="M353 401c0 -20.667 -3.83301 -40 -11.5 -58s-18.334 -33.667 -32.001 -47s-29.5 -23.833 -47.5 -31.5s-37.333 -11.5 -58 -11.5s-40 3.83301 -58 11.5s-33.667 18.167 -47 31.5s-23.833 29 -31.5 47s-11.5 37.333 -11.5 58s3.83301 40 11.5 58s18.167 33.667 31.5 47
s29 23.833 47 31.5s37.333 11.5 58 11.5s40 -3.83301 58 -11.5s33.833 -18.167 47.5 -31.5s24.334 -29 32.001 -47s11.5 -37.333 11.5 -58zM308 401c0 28.667 -10 53.167 -30 73.5s-44.667 30.5 -74 30.5c-28.667 0 -53.167 -10.167 -73.5 -30.5s-30.5 -44.833 -30.5 -73.5
s10.167 -53.167 30.5 -73.5s44.833 -30.5 73.5 -30.5c29.333 0 54 10.167 74 30.5s30 44.833 30 73.5z" />
    <glyph glyph-name="tilde" unicode="&#x2dc;" 
d="M353 401c0 -20.667 -3.83301 -40 -11.5 -58s-18.334 -33.667 -32.001 -47s-29.5 -23.833 -47.5 -31.5s-37.333 -11.5 -58 -11.5s-40 3.83301 -58 11.5s-33.667 18.167 -47 31.5s-23.833 29 -31.5 47s-11.5 37.333 -11.5 58s3.83301 40 11.5 58s18.167 33.667 31.5 47
s29 23.833 47 31.5s37.333 11.5 58 11.5s40 -3.83301 58 -11.5s33.833 -18.167 47.5 -31.5s24.334 -29 32.001 -47s11.5 -37.333 11.5 -58zM308 401c0 28.667 -10 53.167 -30 73.5s-44.667 30.5 -74 30.5c-28.667 0 -53.167 -10.167 -73.5 -30.5s-30.5 -44.833 -30.5 -73.5
s10.167 -53.167 30.5 -73.5s44.833 -30.5 73.5 -30.5c29.333 0 54 10.167 74 30.5s30 44.833 30 73.5z" />
    <glyph glyph-name="hungarumlaut" unicode="&#x2dd;" 
d="M353 401c0 -20.667 -3.83301 -40 -11.5 -58s-18.334 -33.667 -32.001 -47s-29.5 -23.833 -47.5 -31.5s-37.333 -11.5 -58 -11.5s-40 3.83301 -58 11.5s-33.667 18.167 -47 31.5s-23.833 29 -31.5 47s-11.5 37.333 -11.5 58s3.83301 40 11.5 58s18.167 33.667 31.5 47
s29 23.833 47 31.5s37.333 11.5 58 11.5s40 -3.83301 58 -11.5s33.833 -18.167 47.5 -31.5s24.334 -29 32.001 -47s11.5 -37.333 11.5 -58zM308 401c0 28.667 -10 53.167 -30 73.5s-44.667 30.5 -74 30.5c-28.667 0 -53.167 -10.167 -73.5 -30.5s-30.5 -44.833 -30.5 -73.5
s10.167 -53.167 30.5 -73.5s44.833 -30.5 73.5 -30.5c29.333 0 54 10.167 74 30.5s30 44.833 30 73.5z" />
    <glyph glyph-name="pi" unicode="&#x3c0;" 
d="M353 401c0 -20.667 -3.83301 -40 -11.5 -58s-18.334 -33.667 -32.001 -47s-29.5 -23.833 -47.5 -31.5s-37.333 -11.5 -58 -11.5s-40 3.83301 -58 11.5s-33.667 18.167 -47 31.5s-23.833 29 -31.5 47s-11.5 37.333 -11.5 58s3.83301 40 11.5 58s18.167 33.667 31.5 47
s29 23.833 47 31.5s37.333 11.5 58 11.5s40 -3.83301 58 -11.5s33.833 -18.167 47.5 -31.5s24.334 -29 32.001 -47s11.5 -37.333 11.5 -58zM308 401c0 28.667 -10 53.167 -30 73.5s-44.667 30.5 -74 30.5c-28.667 0 -53.167 -10.167 -73.5 -30.5s-30.5 -44.833 -30.5 -73.5
s10.167 -53.167 30.5 -73.5s44.833 -30.5 73.5 -30.5c29.333 0 54 10.167 74 30.5s30 44.833 30 73.5z" />
    <glyph glyph-name="endash" unicode="&#x2013;" horiz-adv-x="384" 
d="M364 207l-342 4l-2 89l340 4z" />
    <glyph glyph-name="emdash" unicode="&#x2014;" horiz-adv-x="454" 
d="M434 304v-86l-408 -7l-6 93h414z" />
    <glyph glyph-name="quoteleft" unicode="&#x2018;" horiz-adv-x="156" 
d="M136 590l-2 -98l-111 -1l-3 98l46 71l43 -4l-19 -64z" />
    <glyph glyph-name="quoteright" unicode="&#x2019;" horiz-adv-x="156" 
d="M136 561l-46 -71l-43 4l19 64l-46 2l2 98l111 1z" />
    <glyph glyph-name="quotesinglbase" unicode="&#x201a;" horiz-adv-x="156" 
d="M136 4l-46 -72l-43 5l19 63l-46 2l2 98l111 2z" />
    <glyph glyph-name="quotedblleft" unicode="&#x201c;" horiz-adv-x="293" 
d="M273 579l-2 -98l-111 -1l-3 98l47 75l44 -4l-21 -67zM134 581l-3 -97l-104 -1l-7 99l46 71l43 -4l-19 -64z" />
    <glyph glyph-name="quotedblright" unicode="&#x201d;" horiz-adv-x="293" 
d="M273 554l-46 -72l-43 5l19 64l-44 4l3 97l104 1zM136 558l-47 -76l-43 5l20 67l-46 2l2 99l111 1z" />
    <glyph glyph-name="quotedblbase" unicode="&#x201e;" horiz-adv-x="293" 
d="M273 4l-46 -72l-43 5l19 63l-44 5l3 97l104 1zM136 7l-47 -75l-43 5l20 67l-46 2l2 98l111 1z" />
    <glyph glyph-name="dagger" unicode="&#x2020;" horiz-adv-x="275" 
d="M255 653l-8 -72l-64 -1l-6 -147l-76 -4l-6 149l-65 -1l-10 76h71l-3 87l102 -2l-3 -85h68z" />
    <glyph glyph-name="daggerdbl" unicode="&#x2021;" 
d="M353 401c0 -20.667 -3.83301 -40 -11.5 -58s-18.334 -33.667 -32.001 -47s-29.5 -23.833 -47.5 -31.5s-37.333 -11.5 -58 -11.5s-40 3.83301 -58 11.5s-33.667 18.167 -47 31.5s-23.833 29 -31.5 47s-11.5 37.333 -11.5 58s3.83301 40 11.5 58s18.167 33.667 31.5 47
s29 23.833 47 31.5s37.333 11.5 58 11.5s40 -3.83301 58 -11.5s33.833 -18.167 47.5 -31.5s24.334 -29 32.001 -47s11.5 -37.333 11.5 -58zM308 401c0 28.667 -10 53.167 -30 73.5s-44.667 30.5 -74 30.5c-28.667 0 -53.167 -10.167 -73.5 -30.5s-30.5 -44.833 -30.5 -73.5
s10.167 -53.167 30.5 -73.5s44.833 -30.5 73.5 -30.5c29.333 0 54 10.167 74 30.5s30 44.833 30 73.5z" />
    <glyph glyph-name="bullet" unicode="&#x2022;" horiz-adv-x="172" 
d="M151 335c2 -16.667 -3.16602 -31.3311 -15.499 -43.998s-28.5 -19.667 -48.5 -21c-17.333 -0.666992 -32.666 5.16602 -45.999 17.499s-20.333 27.166 -21 44.499c-0.666992 18 5.16602 33.5 17.499 46.5s28.833 19.833 49.5 20.5s36.167 -5.5 46.5 -18.5
s16.166 -28.167 17.499 -45.5z" />
    <glyph glyph-name="ellipsis" unicode="&#x2026;" horiz-adv-x="572" 
d="M552 -20l-102 2l2 96l98 1zM338 -20l-102 2l2 96l98 1zM122 -20l-102 2l2 96l98 1z" />
    <glyph glyph-name="perthousand" unicode="&#x2030;" horiz-adv-x="763" 
d="M1447 -175c0.666992 -20.667 -5.33691 -41.5039 -18.0039 -62.5039s-31.667 -39.833 -57 -56.5s-56.833 -30.167 -94.5 -40.5s-81.167 -15.5 -130.5 -15.5c-80 0 -149.167 5.66699 -207.5 17s-108 29.833 -149 55.5s-74.667 58.834 -101 99.501
s-47.166 90.334 -62.499 149.001c-14.667 54.667 -29.167 100.834 -43.5 138.501s-30.166 68.167 -47.499 91.5s-37 40.333 -59 51s-48 16.334 -78 17.001l2 -211h110l1 -83l-337 2l-2 81h117l-7 525h-114c-18.667 0 -33.5 -5.33301 -44.5 -16s-16.833 -22.667 -17.5 -36
c0 -14 4 -24.5 12 -31.5s17 -11.667 27 -14s19.167 -2.83301 27.5 -1.5s13.166 3.66602 14.499 6.99902c1.33301 4 1.16602 8.5 -0.500977 13.5s-10.167 7.83301 -25.5 8.5l25 54c32.667 -0.666992 54.667 -7.5 66 -20.5s17.666 -27.833 18.999 -44.5
c1.33301 -18.667 -7.16699 -37.667 -25.5 -57s-46.5 -28.666 -84.5 -27.999c-40 1.33301 -73.333 11.333 -100 30s-40.667 48.334 -42 89.001c-0.666992 22.667 3.33301 42.167 12 58.5s20.334 29.5 35.001 39.5s31.334 17.333 50.001 22s37.334 7 56.001 7l295 1
c42.667 0 79 -5.33301 109 -16s54.5 -24.5 73.5 -41.5s32.833 -35.833 41.5 -56.5s13 -41 13 -61c0 -19.333 -2.5 -39.333 -7.5 -60s-13.667 -39.667 -26 -57s-28.666 -32 -48.999 -44s-45.5 -18.667 -75.5 -20c38 -6.66699 68.167 -23.334 90.5 -50.001
s40.333 -57.334 54 -92.001s24.167 -70.334 31.5 -107.001s14.666 -68 21.999 -94c18 -62.667 44 -110 78 -142s70.5 -54.5 109.5 -67.5s77.833 -19.833 116.5 -20.5s72 -1 100 -1s53.833 2.66699 77.5 8s43.834 12.333 60.501 21s29.667 18.167 39 28.5s14 20.833 14 31.5
c0 12 -5 22.667 -15 32s-23.5 17.5 -40.5 24.5s-36.833 12.333 -59.5 16s-46.667 5.5 -72 5.5c-50.667 0 -90.167 -5.16699 -118.5 -15.5s-48.166 -21.5 -59.499 -33.5l-129 4c7.33301 12.667 19.333 25.834 36 39.501s38 26.334 64 38.001s56.333 21.167 91 28.5
s74 11 118 11s83.833 -3.83301 119.5 -11.5s66.167 -18 91.5 -31s45 -28.667 59 -47s21.333 -37.833 22 -58.5zM597.996 469.996c0.666992 39.333 -13.667 67.5 -43 84.5s-81 25.167 -155 24.5l1 -218c24 0 47.667 1.33301 71 4s44.166 7.83398 62.499 15.501
s33.333 18.667 45 33s17.834 33.166 18.501 56.499z" />
    <glyph glyph-name="guilsinglleft" unicode="&#x2039;" 
d="M353 401c0 -20.667 -3.83301 -40 -11.5 -58s-18.334 -33.667 -32.001 -47s-29.5 -23.833 -47.5 -31.5s-37.333 -11.5 -58 -11.5s-40 3.83301 -58 11.5s-33.667 18.167 -47 31.5s-23.833 29 -31.5 47s-11.5 37.333 -11.5 58s3.83301 40 11.5 58s18.167 33.667 31.5 47
s29 23.833 47 31.5s37.333 11.5 58 11.5s40 -3.83301 58 -11.5s33.833 -18.167 47.5 -31.5s24.334 -29 32.001 -47s11.5 -37.333 11.5 -58zM308 401c0 28.667 -10 53.167 -30 73.5s-44.667 30.5 -74 30.5c-28.667 0 -53.167 -10.167 -73.5 -30.5s-30.5 -44.833 -30.5 -73.5
s10.167 -53.167 30.5 -73.5s44.833 -30.5 73.5 -30.5c29.333 0 54 10.167 74 30.5s30 44.833 30 73.5z" />
    <glyph glyph-name="guilsinglright" unicode="&#x203a;" 
d="M353 401c0 -20.667 -3.83301 -40 -11.5 -58s-18.334 -33.667 -32.001 -47s-29.5 -23.833 -47.5 -31.5s-37.333 -11.5 -58 -11.5s-40 3.83301 -58 11.5s-33.667 18.167 -47 31.5s-23.833 29 -31.5 47s-11.5 37.333 -11.5 58s3.83301 40 11.5 58s18.167 33.667 31.5 47
s29 23.833 47 31.5s37.333 11.5 58 11.5s40 -3.83301 58 -11.5s33.833 -18.167 47.5 -31.5s24.334 -29 32.001 -47s11.5 -37.333 11.5 -58zM308 401c0 28.667 -10 53.167 -30 73.5s-44.667 30.5 -74 30.5c-28.667 0 -53.167 -10.167 -73.5 -30.5s-30.5 -44.833 -30.5 -73.5
s10.167 -53.167 30.5 -73.5s44.833 -30.5 73.5 -30.5c29.333 0 54 10.167 74 30.5s30 44.833 30 73.5z" />
    <glyph glyph-name="trademark" unicode="&#x2122;" horiz-adv-x="339" 
d="M319 477l-73 -1v28l23 1l-1 106l-41 -98l-25 -1l-29 54l1 -60h15v-26l-70 1v27h23v96h-18v27h47l42 -72l44 110h57l1 -26h-15l1 -138h18v-28zM227 648h-119l-2 -102h22v-26l-76 -1v29h22v99h-28l-1 -16h-25v47l207 1v-31z" />
    <glyph glyph-name="partialdiff" unicode="&#x2202;" 
d="M353 401c0 -20.667 -3.83301 -40 -11.5 -58s-18.334 -33.667 -32.001 -47s-29.5 -23.833 -47.5 -31.5s-37.333 -11.5 -58 -11.5s-40 3.83301 -58 11.5s-33.667 18.167 -47 31.5s-23.833 29 -31.5 47s-11.5 37.333 -11.5 58s3.83301 40 11.5 58s18.167 33.667 31.5 47
s29 23.833 47 31.5s37.333 11.5 58 11.5s40 -3.83301 58 -11.5s33.833 -18.167 47.5 -31.5s24.334 -29 32.001 -47s11.5 -37.333 11.5 -58zM308 401c0 28.667 -10 53.167 -30 73.5s-44.667 30.5 -74 30.5c-28.667 0 -53.167 -10.167 -73.5 -30.5s-30.5 -44.833 -30.5 -73.5
s10.167 -53.167 30.5 -73.5s44.833 -30.5 73.5 -30.5c29.333 0 54 10.167 74 30.5s30 44.833 30 73.5z" />
    <glyph glyph-name="Delta" unicode="&#x2206;" 
d="M353 401c0 -20.667 -3.83301 -40 -11.5 -58s-18.334 -33.667 -32.001 -47s-29.5 -23.833 -47.5 -31.5s-37.333 -11.5 -58 -11.5s-40 3.83301 -58 11.5s-33.667 18.167 -47 31.5s-23.833 29 -31.5 47s-11.5 37.333 -11.5 58s3.83301 40 11.5 58s18.167 33.667 31.5 47
s29 23.833 47 31.5s37.333 11.5 58 11.5s40 -3.83301 58 -11.5s33.833 -18.167 47.5 -31.5s24.334 -29 32.001 -47s11.5 -37.333 11.5 -58zM308 401c0 28.667 -10 53.167 -30 73.5s-44.667 30.5 -74 30.5c-28.667 0 -53.167 -10.167 -73.5 -30.5s-30.5 -44.833 -30.5 -73.5
s10.167 -53.167 30.5 -73.5s44.833 -30.5 73.5 -30.5c29.333 0 54 10.167 74 30.5s30 44.833 30 73.5z" />
    <glyph glyph-name="product" unicode="&#x220f;" 
d="M353 401c0 -20.667 -3.83301 -40 -11.5 -58s-18.334 -33.667 -32.001 -47s-29.5 -23.833 -47.5 -31.5s-37.333 -11.5 -58 -11.5s-40 3.83301 -58 11.5s-33.667 18.167 -47 31.5s-23.833 29 -31.5 47s-11.5 37.333 -11.5 58s3.83301 40 11.5 58s18.167 33.667 31.5 47
s29 23.833 47 31.5s37.333 11.5 58 11.5s40 -3.83301 58 -11.5s33.833 -18.167 47.5 -31.5s24.334 -29 32.001 -47s11.5 -37.333 11.5 -58zM308 401c0 28.667 -10 53.167 -30 73.5s-44.667 30.5 -74 30.5c-28.667 0 -53.167 -10.167 -73.5 -30.5s-30.5 -44.833 -30.5 -73.5
s10.167 -53.167 30.5 -73.5s44.833 -30.5 73.5 -30.5c29.333 0 54 10.167 74 30.5s30 44.833 30 73.5z" />
    <glyph glyph-name="minus" unicode="&#x2212;" 
d="M353 401c0 -20.667 -3.83301 -40 -11.5 -58s-18.334 -33.667 -32.001 -47s-29.5 -23.833 -47.5 -31.5s-37.333 -11.5 -58 -11.5s-40 3.83301 -58 11.5s-33.667 18.167 -47 31.5s-23.833 29 -31.5 47s-11.5 37.333 -11.5 58s3.83301 40 11.5 58s18.167 33.667 31.5 47
s29 23.833 47 31.5s37.333 11.5 58 11.5s40 -3.83301 58 -11.5s33.833 -18.167 47.5 -31.5s24.334 -29 32.001 -47s11.5 -37.333 11.5 -58zM308 401c0 28.667 -10 53.167 -30 73.5s-44.667 30.5 -74 30.5c-28.667 0 -53.167 -10.167 -73.5 -30.5s-30.5 -44.833 -30.5 -73.5
s10.167 -53.167 30.5 -73.5s44.833 -30.5 73.5 -30.5c29.333 0 54 10.167 74 30.5s30 44.833 30 73.5z" />
    <glyph glyph-name="fraction" unicode="&#x2215;" 
d="M353 401c0 -20.667 -3.83301 -40 -11.5 -58s-18.334 -33.667 -32.001 -47s-29.5 -23.833 -47.5 -31.5s-37.333 -11.5 -58 -11.5s-40 3.83301 -58 11.5s-33.667 18.167 -47 31.5s-23.833 29 -31.5 47s-11.5 37.333 -11.5 58s3.83301 40 11.5 58s18.167 33.667 31.5 47
s29 23.833 47 31.5s37.333 11.5 58 11.5s40 -3.83301 58 -11.5s33.833 -18.167 47.5 -31.5s24.334 -29 32.001 -47s11.5 -37.333 11.5 -58zM308 401c0 28.667 -10 53.167 -30 73.5s-44.667 30.5 -74 30.5c-28.667 0 -53.167 -10.167 -73.5 -30.5s-30.5 -44.833 -30.5 -73.5
s10.167 -53.167 30.5 -73.5s44.833 -30.5 73.5 -30.5c29.333 0 54 10.167 74 30.5s30 44.833 30 73.5z" />
    <glyph glyph-name="periodcentered" unicode="&#x2219;" 
d="M353 401c0 -20.667 -3.83301 -40 -11.5 -58s-18.334 -33.667 -32.001 -47s-29.5 -23.833 -47.5 -31.5s-37.333 -11.5 -58 -11.5s-40 3.83301 -58 11.5s-33.667 18.167 -47 31.5s-23.833 29 -31.5 47s-11.5 37.333 -11.5 58s3.83301 40 11.5 58s18.167 33.667 31.5 47
s29 23.833 47 31.5s37.333 11.5 58 11.5s40 -3.83301 58 -11.5s33.833 -18.167 47.5 -31.5s24.334 -29 32.001 -47s11.5 -37.333 11.5 -58zM308 401c0 28.667 -10 53.167 -30 73.5s-44.667 30.5 -74 30.5c-28.667 0 -53.167 -10.167 -73.5 -30.5s-30.5 -44.833 -30.5 -73.5
s10.167 -53.167 30.5 -73.5s44.833 -30.5 73.5 -30.5c29.333 0 54 10.167 74 30.5s30 44.833 30 73.5z" />
    <glyph glyph-name="radical" unicode="&#x221a;" 
d="M353 401c0 -20.667 -3.83301 -40 -11.5 -58s-18.334 -33.667 -32.001 -47s-29.5 -23.833 -47.5 -31.5s-37.333 -11.5 -58 -11.5s-40 3.83301 -58 11.5s-33.667 18.167 -47 31.5s-23.833 29 -31.5 47s-11.5 37.333 -11.5 58s3.83301 40 11.5 58s18.167 33.667 31.5 47
s29 23.833 47 31.5s37.333 11.5 58 11.5s40 -3.83301 58 -11.5s33.833 -18.167 47.5 -31.5s24.334 -29 32.001 -47s11.5 -37.333 11.5 -58zM308 401c0 28.667 -10 53.167 -30 73.5s-44.667 30.5 -74 30.5c-28.667 0 -53.167 -10.167 -73.5 -30.5s-30.5 -44.833 -30.5 -73.5
s10.167 -53.167 30.5 -73.5s44.833 -30.5 73.5 -30.5c29.333 0 54 10.167 74 30.5s30 44.833 30 73.5z" />
    <glyph glyph-name="infinity" unicode="&#x221e;" 
d="M353 401c0 -20.667 -3.83301 -40 -11.5 -58s-18.334 -33.667 -32.001 -47s-29.5 -23.833 -47.5 -31.5s-37.333 -11.5 -58 -11.5s-40 3.83301 -58 11.5s-33.667 18.167 -47 31.5s-23.833 29 -31.5 47s-11.5 37.333 -11.5 58s3.83301 40 11.5 58s18.167 33.667 31.5 47
s29 23.833 47 31.5s37.333 11.5 58 11.5s40 -3.83301 58 -11.5s33.833 -18.167 47.5 -31.5s24.334 -29 32.001 -47s11.5 -37.333 11.5 -58zM308 401c0 28.667 -10 53.167 -30 73.5s-44.667 30.5 -74 30.5c-28.667 0 -53.167 -10.167 -73.5 -30.5s-30.5 -44.833 -30.5 -73.5
s10.167 -53.167 30.5 -73.5s44.833 -30.5 73.5 -30.5c29.333 0 54 10.167 74 30.5s30 44.833 30 73.5z" />
    <glyph glyph-name="integral" unicode="&#x222b;" 
d="M353 401c0 -20.667 -3.83301 -40 -11.5 -58s-18.334 -33.667 -32.001 -47s-29.5 -23.833 -47.5 -31.5s-37.333 -11.5 -58 -11.5s-40 3.83301 -58 11.5s-33.667 18.167 -47 31.5s-23.833 29 -31.5 47s-11.5 37.333 -11.5 58s3.83301 40 11.5 58s18.167 33.667 31.5 47
s29 23.833 47 31.5s37.333 11.5 58 11.5s40 -3.83301 58 -11.5s33.833 -18.167 47.5 -31.5s24.334 -29 32.001 -47s11.5 -37.333 11.5 -58zM308 401c0 28.667 -10 53.167 -30 73.5s-44.667 30.5 -74 30.5c-28.667 0 -53.167 -10.167 -73.5 -30.5s-30.5 -44.833 -30.5 -73.5
s10.167 -53.167 30.5 -73.5s44.833 -30.5 73.5 -30.5c29.333 0 54 10.167 74 30.5s30 44.833 30 73.5z" />
    <glyph glyph-name="approxequal" unicode="&#x2248;" 
d="M353 401c0 -20.667 -3.83301 -40 -11.5 -58s-18.334 -33.667 -32.001 -47s-29.5 -23.833 -47.5 -31.5s-37.333 -11.5 -58 -11.5s-40 3.83301 -58 11.5s-33.667 18.167 -47 31.5s-23.833 29 -31.5 47s-11.5 37.333 -11.5 58s3.83301 40 11.5 58s18.167 33.667 31.5 47
s29 23.833 47 31.5s37.333 11.5 58 11.5s40 -3.83301 58 -11.5s33.833 -18.167 47.5 -31.5s24.334 -29 32.001 -47s11.5 -37.333 11.5 -58zM308 401c0 28.667 -10 53.167 -30 73.5s-44.667 30.5 -74 30.5c-28.667 0 -53.167 -10.167 -73.5 -30.5s-30.5 -44.833 -30.5 -73.5
s10.167 -53.167 30.5 -73.5s44.833 -30.5 73.5 -30.5c29.333 0 54 10.167 74 30.5s30 44.833 30 73.5z" />
    <glyph glyph-name="notequal" unicode="&#x2260;" 
d="M353 401c0 -20.667 -3.83301 -40 -11.5 -58s-18.334 -33.667 -32.001 -47s-29.5 -23.833 -47.5 -31.5s-37.333 -11.5 -58 -11.5s-40 3.83301 -58 11.5s-33.667 18.167 -47 31.5s-23.833 29 -31.5 47s-11.5 37.333 -11.5 58s3.83301 40 11.5 58s18.167 33.667 31.5 47
s29 23.833 47 31.5s37.333 11.5 58 11.5s40 -3.83301 58 -11.5s33.833 -18.167 47.5 -31.5s24.334 -29 32.001 -47s11.5 -37.333 11.5 -58zM308 401c0 28.667 -10 53.167 -30 73.5s-44.667 30.5 -74 30.5c-28.667 0 -53.167 -10.167 -73.5 -30.5s-30.5 -44.833 -30.5 -73.5
s10.167 -53.167 30.5 -73.5s44.833 -30.5 73.5 -30.5c29.333 0 54 10.167 74 30.5s30 44.833 30 73.5z" />
    <glyph glyph-name="lessequal" unicode="&#x2264;" 
d="M353 401c0 -20.667 -3.83301 -40 -11.5 -58s-18.334 -33.667 -32.001 -47s-29.5 -23.833 -47.5 -31.5s-37.333 -11.5 -58 -11.5s-40 3.83301 -58 11.5s-33.667 18.167 -47 31.5s-23.833 29 -31.5 47s-11.5 37.333 -11.5 58s3.83301 40 11.5 58s18.167 33.667 31.5 47
s29 23.833 47 31.5s37.333 11.5 58 11.5s40 -3.83301 58 -11.5s33.833 -18.167 47.5 -31.5s24.334 -29 32.001 -47s11.5 -37.333 11.5 -58zM308 401c0 28.667 -10 53.167 -30 73.5s-44.667 30.5 -74 30.5c-28.667 0 -53.167 -10.167 -73.5 -30.5s-30.5 -44.833 -30.5 -73.5
s10.167 -53.167 30.5 -73.5s44.833 -30.5 73.5 -30.5c29.333 0 54 10.167 74 30.5s30 44.833 30 73.5z" />
    <glyph glyph-name="greaterequal" unicode="&#x2265;" 
d="M353 401c0 -20.667 -3.83301 -40 -11.5 -58s-18.334 -33.667 -32.001 -47s-29.5 -23.833 -47.5 -31.5s-37.333 -11.5 -58 -11.5s-40 3.83301 -58 11.5s-33.667 18.167 -47 31.5s-23.833 29 -31.5 47s-11.5 37.333 -11.5 58s3.83301 40 11.5 58s18.167 33.667 31.5 47
s29 23.833 47 31.5s37.333 11.5 58 11.5s40 -3.83301 58 -11.5s33.833 -18.167 47.5 -31.5s24.334 -29 32.001 -47s11.5 -37.333 11.5 -58zM308 401c0 28.667 -10 53.167 -30 73.5s-44.667 30.5 -74 30.5c-28.667 0 -53.167 -10.167 -73.5 -30.5s-30.5 -44.833 -30.5 -73.5
s10.167 -53.167 30.5 -73.5s44.833 -30.5 73.5 -30.5c29.333 0 54 10.167 74 30.5s30 44.833 30 73.5z" />
    <glyph glyph-name="lozenge" unicode="&#x25ca;" 
d="M353 401c0 -20.667 -3.83301 -40 -11.5 -58s-18.334 -33.667 -32.001 -47s-29.5 -23.833 -47.5 -31.5s-37.333 -11.5 -58 -11.5s-40 3.83301 -58 11.5s-33.667 18.167 -47 31.5s-23.833 29 -31.5 47s-11.5 37.333 -11.5 58s3.83301 40 11.5 58s18.167 33.667 31.5 47
s29 23.833 47 31.5s37.333 11.5 58 11.5s40 -3.83301 58 -11.5s33.833 -18.167 47.5 -31.5s24.334 -29 32.001 -47s11.5 -37.333 11.5 -58zM308 401c0 28.667 -10 53.167 -30 73.5s-44.667 30.5 -74 30.5c-28.667 0 -53.167 -10.167 -73.5 -30.5s-30.5 -44.833 -30.5 -73.5
s10.167 -53.167 30.5 -73.5s44.833 -30.5 73.5 -30.5c29.333 0 54 10.167 74 30.5s30 44.833 30 73.5z" />
    <glyph glyph-name="apple" unicode="&#xf000;" 
d="M353 401c0 -20.667 -3.83301 -40 -11.5 -58s-18.334 -33.667 -32.001 -47s-29.5 -23.833 -47.5 -31.5s-37.333 -11.5 -58 -11.5s-40 3.83301 -58 11.5s-33.667 18.167 -47 31.5s-23.833 29 -31.5 47s-11.5 37.333 -11.5 58s3.83301 40 11.5 58s18.167 33.667 31.5 47
s29 23.833 47 31.5s37.333 11.5 58 11.5s40 -3.83301 58 -11.5s33.833 -18.167 47.5 -31.5s24.334 -29 32.001 -47s11.5 -37.333 11.5 -58zM308 401c0 28.667 -10 53.167 -30 73.5s-44.667 30.5 -74 30.5c-28.667 0 -53.167 -10.167 -73.5 -30.5s-30.5 -44.833 -30.5 -73.5
s10.167 -53.167 30.5 -73.5s44.833 -30.5 73.5 -30.5c29.333 0 54 10.167 74 30.5s30 44.833 30 73.5z" />
    <glyph glyph-name="fi" unicode="&#xf001;" 
d="M353 401c0 -20.667 -3.83301 -40 -11.5 -58s-18.334 -33.667 -32.001 -47s-29.5 -23.833 -47.5 -31.5s-37.333 -11.5 -58 -11.5s-40 3.83301 -58 11.5s-33.667 18.167 -47 31.5s-23.833 29 -31.5 47s-11.5 37.333 -11.5 58s3.83301 40 11.5 58s18.167 33.667 31.5 47
s29 23.833 47 31.5s37.333 11.5 58 11.5s40 -3.83301 58 -11.5s33.833 -18.167 47.5 -31.5s24.334 -29 32.001 -47s11.5 -37.333 11.5 -58zM308 401c0 28.667 -10 53.167 -30 73.5s-44.667 30.5 -74 30.5c-28.667 0 -53.167 -10.167 -73.5 -30.5s-30.5 -44.833 -30.5 -73.5
s10.167 -53.167 30.5 -73.5s44.833 -30.5 73.5 -30.5c29.333 0 54 10.167 74 30.5s30 44.833 30 73.5z" />
    <glyph glyph-name="fl" unicode="&#xf002;" 
d="M353 401c0 -20.667 -3.83301 -40 -11.5 -58s-18.334 -33.667 -32.001 -47s-29.5 -23.833 -47.5 -31.5s-37.333 -11.5 -58 -11.5s-40 3.83301 -58 11.5s-33.667 18.167 -47 31.5s-23.833 29 -31.5 47s-11.5 37.333 -11.5 58s3.83301 40 11.5 58s18.167 33.667 31.5 47
s29 23.833 47 31.5s37.333 11.5 58 11.5s40 -3.83301 58 -11.5s33.833 -18.167 47.5 -31.5s24.334 -29 32.001 -47s11.5 -37.333 11.5 -58zM308 401c0 28.667 -10 53.167 -30 73.5s-44.667 30.5 -74 30.5c-28.667 0 -53.167 -10.167 -73.5 -30.5s-30.5 -44.833 -30.5 -73.5
s10.167 -53.167 30.5 -73.5s44.833 -30.5 73.5 -30.5c29.333 0 54 10.167 74 30.5s30 44.833 30 73.5z" />
    <glyph glyph-name="Omega" unicode="&#xf0bd;" 
d="M353 401c0 -20.667 -3.83301 -40 -11.5 -58s-18.334 -33.667 -32.001 -47s-29.5 -23.833 -47.5 -31.5s-37.333 -11.5 -58 -11.5s-40 3.83301 -58 11.5s-33.667 18.167 -47 31.5s-23.833 29 -31.5 47s-11.5 37.333 -11.5 58s3.83301 40 11.5 58s18.167 33.667 31.5 47
s29 23.833 47 31.5s37.333 11.5 58 11.5s40 -3.83301 58 -11.5s33.833 -18.167 47.5 -31.5s24.334 -29 32.001 -47s11.5 -37.333 11.5 -58zM308 401c0 28.667 -10 53.167 -30 73.5s-44.667 30.5 -74 30.5c-28.667 0 -53.167 -10.167 -73.5 -30.5s-30.5 -44.833 -30.5 -73.5
s10.167 -53.167 30.5 -73.5s44.833 -30.5 73.5 -30.5c29.333 0 54 10.167 74 30.5s30 44.833 30 73.5z" />
  </font>
</defs>
</svg>
